<?xml version="1.0" encoding="UTF-8"?>
<!DOCTYPE svg PUBLIC "-//W3C//DTD SVG 1.1//EN" "http://www.w3.org/Graphics/SVG/1.1/DTD/svg11.dtd">
<!-- Creator: CorelDRAW 2020 (64-Bit 评估版) -->
<svg xmlns="http://www.w3.org/2000/svg" xml:space="preserve" version="1.1" style="shape-rendering:geometricPrecision; text-rendering:geometricPrecision; image-rendering:optimizeQuality; fill-rule:evenodd; clip-rule:evenodd"
viewBox="134906 161126 60411 52255"
 xmlns:xlink="http://www.w3.org/1999/xlink"
 xmlns:xodm="http://www.corel.com/coreldraw/odm/2003">
 <defs>
  <style type="text/css">
   <![CDATA[
    .str0 {stroke:#332C2B;stroke-width:20;stroke-miterlimit:22.9256}
    .fil2 {fill:none}
    .fil4 {fill:#332C2B}
    .fil0 {fill:#622A2C}
    .fil1 {fill:#FEFEFE;fill-rule:nonzero}
    .fil3 {fill:#332C2B;fill-rule:nonzero}
   ]]>
  </style>
 </defs>
 <g id="图层_x0020_1">
  <metadata id="CorelCorpID_0Corel-Layer"/>
  <g id="_2638372489456">
   <path class="fil0" d="M173973.62 186512.5l12492.18 0c724.71,0 1317.64,592.93 1317.64,1317.64l0 12174.19c0,724.71 -592.93,1317.64 -1317.64,1317.64l-12492.18 0c-724.71,0 -1317.64,-592.93 -1317.64,-1317.64l0 -12174.19c0,-724.71 592.93,-1317.64 1317.64,-1317.64z"/>
   <path class="fil1" d="M180317.87 194480.81l-1911.72 1276.01c-677.52,1288.75 -1313.51,2351.53 -1907.96,3188.33 -594.45,836.8 -1004.46,1255.19 -1230.06,1255.19 -147.51,0 -262.71,-51.46 -345.59,-154.38 -82.89,-102.92 -126.83,-208.08 -131.83,-315.48 -22.51,-483.28 210.08,-1078.44 697.78,-1785.46 487.68,-707.03 1263.97,-1458.8 2328.84,-2255.32 787.67,-1718.35 1327.96,-3159.24 1620.86,-4322.7 292.89,-1163.47 430.59,-1933.14 413.08,-2309.03 -7.5,-161.09 -76.32,-241.64 -206.48,-241.64 -1081.93,0 -2157.01,2205.98 -2456.54,3007.1 -437.1,1169.08 -826.06,2367.69 137.03,1684.77 164.88,-116.9 273.98,-172.27 316.95,-181.23 8.68,0 13.44,8.96 14.26,26.86 19.86,425.48 -1306.33,1919.7 -1706.72,1919.7 -130.16,0 -217.46,-58.17 -261.92,-174.51 -44.47,-116.35 -73.17,-313.24 -86.08,-590.68 -47.1,-1011.32 121.07,-2058.44 504.49,-3141.34 454.6,-1283.99 2054.61,-3570.94 3621.17,-3570.94 277.66,0 496.59,89.5 656.77,268.49 160.18,179 247.77,429.59 262.78,751.78 12.5,268.49 -13.43,550.4 -77.76,845.75l-394.15 1597.52c-181.51,760.72 -365.33,1378.25 -551.49,1852.58 -186.16,474.34 -472.44,1127.66 -858.85,1959.99l1267.77 -724.93 285.37 133.57z"/>
   <path class="fil1" d="M180681.21 194777.38c-1283.91,-593.5 -1479.05,-1687.84 -624.73,-2933.28 795.63,-1159.9 3342.64,-1802.29 4828.71,-1802.29 5151.6,0 -694.92,2719.23 65.07,2072.27 1126.45,-958.91 -2281.83,-178.29 -3110.66,160.53 -833,340.51 -1249.49,715.08 -1249.49,1123.69 0,77.84 23.86,153.23 71.59,226.2 986.82,1508.69 5961.39,1457.18 4034.77,4341.55 -732.08,1096 -3172.11,1473.94 -4483.81,1473.94 -763.56,0 -1360.1,-82.7 -1789.62,-248.09 -429.51,-165.39 -644.26,-398.89 -644.26,-700.48 0,-1014.67 1844.57,-1404.49 1405.67,-1240.45 -1055.9,487.48 1338.41,647.3 2954.5,291.87 3454.97,-759.85 -65.92,-2122.08 -1457.74,-2765.46z"/>
  </g>
  <rect class="fil2 str0" x="134906.44" y="161126.15" width="60410.62" height="52254.29"/>
  <path class="fil2 str0" d="M146861.57 163456.54l36052.21 0c216.08,0 392.86,176.78 392.86,392.86l0 15168.42c0,216.08 -176.78,392.86 -392.86,392.86l-36052.21 0c-216.08,0 -392.86,-176.78 -392.86,-392.86l0 -15168.42c0,-216.08 176.78,-392.86 392.86,-392.86z"/>
  <path class="fil3" d="M169969.49 205904.32l0 -1393.84 2082.19 0 0 861.8c19,373.9 -148.33,551.05 -502.62,532.04l-1579.57 0zm-129.95 -2514.32l0 -416.8 847.71 0 0 -287.48 646.05 0 0 287.48 890.62 0 0 416.8 -890.62 0 0 473.2 804.81 0 0 402.1 -2240.95 0 0 -402.1 790.09 0 0 -473.2 -847.71 0zm-373.9 2541.29l-603.14 0c162.43,-383.09 272.76,-866.71 330.38,-1450.85l531.43 0c-19,564.53 -105.43,1048.15 -258.67,1450.85zm2011.09 -1018.72l-918.81 0 0 617.85 732.48 0c133.62,9.81 196.14,-57 186.33,-201.04l0 -416.81zm-1967.57 -1294.55c114.63,249.47 186.34,483.62 215.15,704.28l-560.24 0c-38,-229.86 -105.42,-464.62 -201.05,-704.28l546.14 0zm-28.81 -847.71c95.62,210.86 162.44,440.71 201.05,689.57l-560.23 0c-38.62,-210.24 -105.43,-440.1 -201.05,-689.57l560.23 0zm5866.92 1193.41l-1853.57 0 0 1997 -588.43 0 0 -2413.8 1206.9 0 0 -861.81 646.05 0 0 861.81 1192.19 0 0 1852.33c9.81,373.29 -167.34,554.72 -531.43,545.53l-359.19 0 0 -373.9 115.24 0c124.43,9.81 181.43,-52.71 172.24,-186.34l0 -1420.82zm-157.53 245.18l0 775.39c9.8,354.28 -148.34,526.52 -474.43,516.71l-1049.37 0 0 -1292.1 1523.8 0zm574.33 -1438.59c-19.61,239.66 -86.42,459.71 -201.05,661.37l-546.13 0c95.62,-191.85 163.04,-411.9 201.04,-661.37l546.14 0zm-2672.46 0l546.14 0c38,249.47 105.42,469.52 201.05,661.37l-546.14 0c-114.63,-201.66 -181.44,-421.71 -201.05,-661.37zm1134.57 1840.69l0 487.91 245.18 0c124.43,9.19 182.05,-47.81 172.85,-172.24l0 -315.67 -418.03 0zm5695.28 859.36l0 387.38 -3205.11 0 0 -387.38 1265.74 0 0 -686.51 -861.81 0 0 -431.52 2384.38 0 0 431.52 -861.81 0 0 686.51 1278.61 0zm-1.83 -2556.01l0 660.76 -588.44 0 0 -258.66 -2026.41 0 0 258.66 -588.43 0 0 -660.76 1235.71 0 0 -215.75 746.57 0 0 215.75 1221 0zm-3216.15 1479.66l0 -330.38c411.9,-105.42 699.37,-292.37 861.8,-560.23l689.57 0c-277.66,545.52 -794.99,842.8 -1551.37,890.61zm3217.98 0c-756.38,-47.81 -1273.71,-345.09 -1551.37,-890.61l689.57 0c162.43,267.86 449.9,454.81 861.8,560.23l0 330.38zm3036.31 -935.36l0 1494.99c19,354.9 -153.24,522.84 -516.72,503.23l-989.91 0 0 -1998.22 1506.63 0zm217.6 -241.5l-1609 0 0 -416.81 2212.14 0 0 2627.72c19,373.29 -172.24,550.43 -574.33,531.43l-402.71 0 0 -373.9 201.66 0c124.43,9.81 181.43,-47.81 172.24,-172.24l0 -2196.2zm-2530.26 2771.76l0 -2456.7 603.14 0 0 2456.7 -603.14 0zm560.85 -3232.7c105.43,229.86 172.24,445.62 201.05,646.66l-603.15 0c-28.8,-239.66 -76.61,-454.8 -144.04,-646.66l546.14 0zm1034.05 2313.28c123.81,0 185.72,-62.53 185.72,-186.95l0 -258.06 -442.55 0 0 445.01 256.83 0zm-256.83 -1223.45l0 404.54 442.55 0 0 -404.54 -442.55 0zm5750.45 1799.62l0 344.48c-488.52,-95.62 -880.81,-210.86 -1178.09,-344.48 -296.67,124.43 -689.57,243.95 -1177.48,359.19l0 -359.19c354.29,-115.24 598.24,-215.76 732.48,-301.57 -210.86,-191.86 -397.81,-440.71 -560.24,-747.19l646.66 0c114.63,162.43 234.15,301.57 358.58,416.19 105.43,-95.62 234.76,-277.66 388,-545.52l-1422.05 0 0 -416.81 2082.81 0 0 402.1c-143.43,373.9 -344.48,675.47 -603.14,905.33 172.23,86.42 416.8,182.04 732.47,287.47zm-920.65 -2457.93l-502.62 0 0 115.23c28.81,421.1 -268.47,650.96 -890.62,689.57l0 -316.28c229.86,-66.81 335.29,-201.05 315.67,-402.09l0 -488.53 1637.81 0 0 587.82c-9.81,105.43 42.9,153.24 158.14,144.05l215.14 0 0 387.38 -502.62 0c-306.47,19.62 -449.9,-128.72 -430.9,-444.39l0 -272.76zm-1551.38 1938.76c19.62,-9.81 48.43,-23.9 86.43,-42.91 105.43,-47.81 196.14,-96.23 272.76,-144.04l0 459.71c-201.05,172.85 -516.72,340.19 -947.62,503.23l0 -1824.75 -273.37 0 0 -402.09 861.8 0 0 1450.85zm-213.92 -2399.09c124.43,210.86 215.15,450.52 272.77,718.38l-574.95 0c-38,-239.66 -119.53,-478.71 -243.96,-718.38l546.14 0zm6612.87 962.95l0 431.52 -790.09 0 0 1867.04 -660.76 0 0 -1867.04 -775.99 0 0 -431.52 775.99 0 0 -1005.24 660.76 0 0 1005.24 790.09 0zm-2455.47 1480.27c85.81,-28.81 205.95,-90.71 359.18,-186.33 47.81,-28.81 80.91,-47.81 100.53,-57.62l0 502.62c-335.29,229.85 -699.38,411.9 -1092.28,546.14l0 -1838.85 -258.05 0 0 -416.81 890.62 0 0 1450.85zm-144.05 -2457.31c125.04,210.24 220.66,459.71 287.48,746.57l-589.05 0c-47.81,-220.05 -129.33,-468.91 -243.95,-746.57l545.52 0z"/>
  <path class="fil3" d="M173688.03 207404.11l0 371.68 -237.32 0 0 173.85 -419.27 0c-47.6,42.53 -97.56,79.33 -150.22,111.06 142.46,79.33 213.35,208.62 213.35,388.21l0 396.32c5.4,190.05 -86.76,282.55 -276.81,277.15l-276.82 0 0 -213.35 142.46 0c63.13,0 92.16,-29.37 87.1,-87.43l0 -31.73c-184.66,111.06 -466.87,200.85 -846.65,269.38l0 -174.19c342.64,-89.79 624.86,-224.49 846.65,-404.08 0,-5.4 0,-13.16 0,-23.96 -5.4,-10.47 -8.11,-18.57 -8.11,-23.63 -179.25,121.52 -456.4,211.32 -830.77,269.38l0 -190.05c279.51,-58.41 524.93,-161.37 735.92,-309.22 0,-5.41 -2.71,-8.11 -8.11,-8.11 -5.06,-5.06 -10.46,-7.76 -15.53,-7.76 -163.72,63.46 -393.27,113.42 -688.65,150.56l0 -182.29c269.05,-47.6 472.27,-116.13 609.32,-206.26l-395.64 0 0 -173.85 -245.08 0 0 -371.68 686.63 0 0 -102.96 411.17 0 0 102.96 666.38 0zm-285.59 934.42c26.33,216.38 137.06,387.87 332.18,514.46l0 205.59c-406.11,-158.33 -619.8,-398.34 -640.73,-720.05l0 -221.45 284.92 0c89.46,5.06 181.95,-13.17 276.81,-55.37l0 237.32c-73.93,26.33 -150.22,39.5 -229.55,39.5l-23.63 0zm-1154.51 -712.97l0 110.73 1116.03 0 0 -110.73 -1116.03 0zm1791.05 1299.34l0 -181.96c221.45,-73.93 374.37,-171.49 458.77,-293.01l-458.77 0 0 -213.35 735.24 0 0 -102.96 348.38 0 0 102.96 743.68 0 0 213.35 -996.86 0c-52.66,79.33 -110.39,145.15 -173.85,197.82l0 221.78c31.73,-5.4 82.03,-18.56 150.55,-39.83 52.67,-10.46 92.16,-18.23 118.49,-23.63l0 181.95c-189.71,84.4 -379.77,134.7 -569.49,150.23l0 -308.55c-100.26,31.73 -219.09,63.46 -356.14,95.2zm767.99 -1251.4l0 -205.92 372 0 0 -157.99 300.45 0 0 157.99 379.77 0 0 205.92 -379.77 0 0 182.97 340.28 0 0 205.92 -973.24 0 0 -205.92 332.51 0 0 -182.97 -372 0zm-332.86 459.1l0 -189.71c-116.12,58.06 -253.18,113.42 -411.5,166.08l0 -260.94c158.32,-37.14 295.38,-82.03 411.5,-134.7l0 -403.4 292.68 0 0 822.67 -292.68 0zm1360.44 799.39l0 166.08c-516.83,-37.13 -854.41,-232.25 -1012.73,-585.69l324.41 0c52.66,95.19 118.83,174.19 197.82,237.31 73.93,-52.66 123.89,-131.65 150.22,-237.31l308.55 0c-63.13,163.72 -152.93,279.51 -269.05,348.38 95.19,36.79 195.45,60.42 300.78,71.23zm-1416.14 -1258.15c-100.26,-47.6 -210.98,-84.4 -332.51,-110.73l0 -197.82c121.53,5.4 232.25,23.63 332.51,55.37l0 253.18zm3932.78 1345.24l0 -229.55 712.28 0 0 -1107.25 -617.43 0 0 -237.66 1606.19 0 0 237.66 -608.98 0 0 1107.25 711.94 0 0 229.55 -1804 0zm2132 -94.18l0 -181.96c221.45,-73.93 374.37,-171.49 458.77,-293.01l-458.77 0 0 -213.35 735.24 0 0 -102.96 348.38 0 0 102.96 743.68 0 0 213.35 -996.86 0c-52.66,79.33 -110.39,145.15 -173.85,197.82l0 221.78c31.73,-5.4 82.03,-18.56 150.55,-39.83 52.67,-10.46 92.16,-18.23 118.49,-23.63l0 181.95c-189.71,84.4 -379.77,134.7 -569.49,150.23l0 -308.55c-100.26,31.73 -219.09,63.46 -356.14,95.2zm767.99 -1251.4l0 -205.92 372 0 0 -157.99 300.45 0 0 157.99 379.77 0 0 205.92 -379.77 0 0 182.97 340.28 0 0 205.92 -973.24 0 0 -205.92 332.51 0 0 -182.97 -372 0zm-332.86 459.1l0 -189.71c-116.12,58.06 -253.18,113.42 -411.5,166.08l0 -260.94c158.32,-37.14 295.38,-82.03 411.5,-134.7l0 -403.4 292.68 0 0 822.67 -292.68 0zm1360.44 799.39l0 166.08c-516.83,-37.13 -854.41,-232.25 -1012.73,-585.69l324.41 0c52.66,95.19 118.83,174.19 197.82,237.31 73.93,-52.66 123.89,-131.65 150.22,-237.31l308.55 0c-63.13,163.72 -152.93,279.51 -269.05,348.38 95.19,36.79 195.45,60.42 300.78,71.23zm-1416.14 -1258.15c-100.26,-47.6 -210.98,-84.4 -332.51,-110.73l0 -197.82c121.53,5.4 232.25,23.63 332.51,55.37l0 253.18zm3924 -7.77l0 -221.45 190.05 0c10.47,-42.19 15.87,-87.09 15.87,-134.69l308.54 0c-5.4,47.6 -15.86,92.5 -31.73,134.69l316.31 0 0 221.45 -363.91 0c-5.06,15.87 -10.46,39.5 -15.86,71.23 -10.47,15.87 -15.87,29.03 -15.87,39.5l237.66 0 0 340.28 157.98 0 0 221.45 -157.98 0 0 190.05c57.72,-10.8 118.49,-18.57 181.95,-23.97l0 205.93c-63.46,15.86 -124.23,31.39 -181.95,47.26l0 363.9 -293.02 0 0 -324.41c-99.92,10.81 -218.75,15.87 -355.81,15.87l0 -253.18c168.79,0 287.28,-2.37 355.81,-7.77l0 -213.68 -332.18 0 0 -221.45c58.07,-147.86 102.97,-298.08 134.36,-451.01l-150.22 0zm1291.23 981c-94.86,205.59 -271.75,369.31 -530,490.5l0 -221.45c247.78,-226.85 363.91,-546.2 348.05,-957.37l0 -110.72 340.27 0 0 110.72c-15.86,400.71 108.03,714.65 371.67,941.5l0 229.56c-279.51,-132 -456.06,-293.02 -529.99,-482.74zm-522.23 -545.52l0 -229.22c105.66,-131.99 161.02,-316.64 166.09,-553.96l324.41 0c-5.07,26.33 -10.47,58.06 -15.53,94.86 -5.4,21.27 -8.1,37.13 -8.1,47.6l569.83 0 0 514.13 -293.02 0 0 -292.68 -332.18 0c-68.52,179.25 -205.58,319.01 -411.5,419.27zm-420.96 -166.43c-10.47,31.73 -31.39,76.29 -63.13,134.36 -10.46,21.26 -18.56,37.13 -23.63,47.6l86.76 0 0 -181.96zm1792.74 989.78l0 -181.96c221.45,-73.93 374.37,-171.49 458.77,-293.01l-458.77 0 0 -213.35 735.24 0 0 -102.96 348.38 0 0 102.96 743.68 0 0 213.35 -996.86 0c-52.66,79.33 -110.39,145.15 -173.85,197.82l0 221.78c31.73,-5.4 82.03,-18.56 150.55,-39.83 52.67,-10.46 92.16,-18.23 118.49,-23.63l0 181.95c-189.71,84.4 -379.77,134.7 -569.49,150.23l0 -308.55c-100.26,31.73 -219.09,63.46 -356.14,95.2zm767.99 -1251.4l0 -205.92 372 0 0 -157.99 300.45 0 0 157.99 379.77 0 0 205.92 -379.77 0 0 182.97 340.28 0 0 205.92 -973.24 0 0 -205.92 332.51 0 0 -182.97 -372 0zm-332.86 459.1l0 -189.71c-116.12,58.06 -253.18,113.42 -411.5,166.08l0 -260.94c158.32,-37.14 295.38,-82.03 411.5,-134.7l0 -403.4 292.68 0 0 822.67 -292.68 0zm1360.44 799.39l0 166.08c-516.83,-37.13 -854.41,-232.25 -1012.73,-585.69l324.41 0c52.66,95.19 118.83,174.19 197.82,237.31 73.93,-52.66 123.89,-131.65 150.22,-237.31l308.55 0c-63.13,163.72 -152.93,279.51 -269.05,348.38 95.19,36.79 195.45,60.42 300.78,71.23zm-1416.14 -1258.15c-100.26,-47.6 -210.98,-84.4 -332.51,-110.73l0 -197.82c121.53,5.4 232.25,23.63 332.51,55.37l0 253.18z"/>
  <polygon class="fil4" points="177052.48,207356.24 177258.27,207356.24 177258.27,209224.2 177052.48,209224.2 "/>
  <polygon class="fil4" points="183400.37,207356.24 183606.16,207356.24 183606.16,209224.2 183400.37,209224.2 "/>
  <path class="fil3" d="M161212.24 167203.81l647.86 0 0 2119.01c-10.64,694.91 -354.41,1054.4 -1029.91,1077 -653.52,10.94 -996.59,-336.15 -1029.9,-1042.73l664.16 0c0,387.2 121.92,581.16 365.74,581.16 221.86,0 348.74,-193.96 382.05,-581.16 0,-22.61 0,-40.11 0,-51.04l0 -2102.24zm1752.6 0l0 3161.74 -664.87 0 0 -3161.74 664.87 0zm406.57 3161.74l0 -3161.74 2059.8 0 0 530.12 -1395.64 0 0 734.29 1295.69 0 0 530.11 -1295.69 0 0 837.1 1445.26 0 0 530.12 -2109.42 0zm5751.84 -2256.09l-630.84 0c-11.34,-318.66 -177.2,-478.35 -498.29,-478.35 -321.09,22.61 -487.66,159.69 -498.29,409.8 0,205.63 160.18,347.82 481.28,427.31 33.31,11.66 60.95,17.5 82.93,17.5 11.34,0 38.98,5.83 83.64,16.77 719.44,148.02 1073.84,438.96 1063.22,872.1 -11.35,660.64 -448.69,1002.63 -1312.72,1025.23 -797.41,0 -1190.8,-347.82 -1179.46,-1042.73l664.15 0c0,364.59 172.24,558.55 515.31,581.16 399.06,-11.67 603.9,-148.03 614.53,-409.8 0,-216.57 -193.5,-364.59 -581.22,-444.8 -55.29,-10.94 -94.27,-22.61 -116.25,-34.28 -675.49,-158.96 -1013.59,-449.9 -1013.59,-871.37 33.31,-649.7 460.01,-996.79 1279.4,-1042.73 664.15,34.27 1013.6,358.76 1046.2,974.19zm1121.06 2256.09l-647.85 0 0 -3161.74 647.85 0 0 1247.63 1163.16 0 0 -1247.63 664.15 0 0 3161.74 -647.85 0 0 -1383.99 -1179.46 0 0 1383.99zm2699.57 0l-631.55 0 1113.54 -3161.74 780.4 0 1080.23 3161.74 -664.87 0 -232.49 -666.47 -1212.77 0 -232.49 666.47zm398.35 -1196.59l881.05 0 -415.36 -1349.72 -17.01 0 -448.68 1349.72zm4942.96 1196.59l-946.97 0 -1196.47 -2631.62 -16.3 16.77 0 2614.85 -615.26 0 0 -3161.74 980.29 0 1163.16 2495.27 16.3 -17.5 0 -2477.77 615.25 0 0 3161.74zm2499.68 -1162.32l-598.24 0 0 -529.39 1246.09 0 0 1588.9c-221.85,68.54 -448.68,102.81 -681.16,102.81 -177.21,22.6 -409.7,34.27 -698.18,34.27 -941.3,-56.87 -1422.59,-592.82 -1445.26,-1606.39 22.67,-1036.9 503.96,-1589.62 1445.26,-1658.16 963.98,0 1440.3,341.98 1428.96,1025.96l-697.47 0c0,-353.66 -204.84,-530.12 -614.54,-530.12 -564.92,11.67 -853.41,398.87 -864.04,1162.32 10.63,751.79 299.12,1133.15 864.04,1144.82 165.87,0 359.36,-22.61 581.23,-68.54 -11.35,11.66 0,11.66 33.31,0l0 -666.48z"/>
  <path class="fil3" d="M147993.66 178317.76l0 -496.09 1307.28 0 0 -3268.4 740.68 0 0 1145.4 1323.42 0 0 513.6 -1323.42 0 0 1609.4 1575.47 0 0 496.09 -3623.43 0zm5271.34 -3113c272.89,-102.14 451.67,-318.82 535.68,-649.3l676.16 0c-30.92,102.86 -62.51,194.06 -94.1,273.58l1574.12 0 0 427.52 -1888.67 0c-104.86,100.67 -246.67,173.63 -425.45,218.86l2156.17 0 0 1028.67 236.59 0 0 461.08 -236.59 0 0 528.2 205 0 0 461.07 -205 0c0,355.3 -172.73,532.58 -518.88,532.58l-582.74 0 0 -410.01 330.7 0c94.09,0 151.89,-40.86 173.4,-122.57l-1259.56 0c-335.39,0 -503.43,-175.82 -503.43,-528.19l0 -461.08 -157.27 0 0 -461.08 157.27 0 0 -957.17c-10.75,0 -36.96,0 -78.64,0 -42.34,10.94 -73.93,16.78 -94.76,16.78l0 -358.94zm-284.98 3213.68l-629.79 0c188.87,-512.88 304.48,-1088.49 346.15,-1726.85l567.28 0c-31.59,729.55 -125.69,1305.17 -283.64,1726.85zm0 -3779.09c94.76,194.07 173.4,472.75 236.59,837.53l-598.87 0c-52.43,-318.81 -120.31,-598.23 -204.33,-837.53l566.61 0zm31.59 1025.76c115.6,262.64 194.24,541.32 236.59,838.25l-582.73 0c-42.35,-239.29 -110.23,-518.71 -205.01,-838.25l551.15 0zm1827.5 393.96c62.51,137.15 109.56,285.25 141.15,445.02l220.46 0 0 -567.59 -1147.99 0 0 567.59 361.6 0c-31.59,-148.83 -67.88,-296.93 -110.22,-445.02l535 0zm15.46 1006.78c63.19,148.1 104.86,290.36 125.69,427.52l220.46 0 0 -528.2 -1147.99 0 0 340.7c0,124.76 57.8,187.5 172.74,187.5l188.86 0c-10.75,-80.25 -41.67,-199.9 -94.09,-359.67 -10.76,-33.56 -16.13,-56.91 -16.13,-67.85l550.46 0zm3098.36 1320.49l0 -1659 2283.21 0 0 1025.75c20.84,445.03 -162.65,655.87 -551.14,633.25l-1732.07 0zm-142.49 -2992.63l0 -496.09 929.55 0 0 -342.16 708.42 0 0 342.16 976.6 0 0 496.09 -976.6 0 0 563.22 882.5 0 0 478.58 -2457.29 0 0 -478.58 866.37 0 0 -563.22 -929.55 0zm-409.99 3024.73l-661.38 0c178.12,-455.97 299.1,-1031.59 362.27,-1726.85l582.74 0c-20.84,671.92 -115.61,1247.53 -283.63,1726.85zm2205.24 -1212.52l-1007.52 0 0 735.39 803.2 0c146.52,11.68 215.07,-67.85 204.32,-239.29l0 -496.1zm-2157.53 -1540.81c125.69,296.92 204.33,575.61 235.92,838.25l-614.33 0c-41.67,-273.58 -115.6,-553 -220.45,-838.25l598.86 0zm-31.59 -1008.98c104.85,250.97 178.12,524.55 220.46,820.75l-614.32 0c-42.35,-250.24 -115.61,-523.82 -220.46,-820.75l614.32 0zm6562.5 1420.44l-2032.51 0 0 2376.89 -645.24 0 0 -2872.98 1323.41 0 0 -1025.75 708.42 0 0 1025.75 1307.29 0 0 2204.71c10.75,444.3 -183.5,660.24 -582.73,649.3l-393.87 0 0 -445.03 126.36 0c136.44,11.68 198.94,-62.74 188.87,-221.78l0 -1691.11zm-172.74 291.83l0 922.88c10.76,421.68 -162.66,626.69 -520.23,615.01l-1150.67 0 0 -1537.89 1670.9 0zm629.78 -1712.27c-21.51,285.26 -94.77,547.17 -220.46,787.19l-598.86 0c104.85,-228.35 178.78,-490.26 220.45,-787.19l598.87 0zm-2930.47 0l598.87 0c41.67,296.93 115.6,558.84 220.46,787.19l-598.87 0c-125.69,-240.02 -198.95,-501.93 -220.46,-787.19zm1244.11 2190.85l0 580.73 268.85 0c136.44,10.94 199.62,-56.91 189.54,-205.01l0 -375.72 -458.39 0zm2799.26 1197.2l0 -393.23c440.91,-159.77 745.39,-370.61 913.42,-633.25l-913.42 0 0 -461.08 1463.89 0 0 -222.51 693.63 0 0 222.51 1480.7 0 0 461.08 -1984.8 0c-104.85,171.44 -219.78,313.71 -346.14,427.52l0 479.31c63.18,-11.67 163.33,-40.12 299.78,-86.08 104.85,-22.62 183.48,-39.4 235.91,-51.07l0 393.23c-377.74,182.38 -756.15,291.09 -1133.88,324.65l0 -666.81c-199.62,68.57 -436.21,137.15 -709.09,205.73zm1529.09 -2704.45l0 -445.03 740.67 0 0 -341.43 598.2 0 0 341.43 756.13 0 0 445.03 -756.13 0 0 395.41 677.5 0 0 445.03 -1937.74 0 0 -445.03 662.04 0 0 -395.41 -740.67 0zm-662.72 992.19l0 -410.01c-231.21,125.48 -504.1,245.13 -819.32,358.94l0 -563.95c315.22,-80.25 588.11,-177.28 819.32,-291.09l0 -871.81 582.73 0 0 1777.92 -582.73 0zm2708.67 1727.58l0 358.94c-1029.03,-80.25 -1701.15,-501.93 -2016.38,-1265.77l645.91 0c104.85,205.73 236.59,376.45 393.87,512.87 147.19,-113.81 246.66,-284.52 299.09,-512.87l614.32 0c-125.69,353.83 -304.47,604.07 -535.68,752.89 189.54,79.53 389.16,130.59 598.87,153.94zm-2819.57 -2719.04c-199.63,-102.87 -420.08,-182.39 -662.05,-239.3l0 -427.52c241.97,11.68 462.42,51.07 662.05,119.65l0 547.17zm5017.27 496.82l0 -393.23c188.87,-182.39 299.77,-473.48 330.68,-872.54l614.33 0c-10.08,102.86 -30.91,199.89 -62.5,291.09l1338.87 0 0 478.58 -803.19 0 0 528.2 774.29 0 0 1676.51c10.75,353.11 -157.28,530.39 -504.1,530.39l-204.99 0 0 -393.96 79.31 0c52.42,0 78.63,-33.56 78.63,-102.14l0 -1232.21 -223.14 0 0 2154.37 -583.41 0 0 -2154.37 -202.98 0 0 1728.31 -551.14 0 0 -2206.9 754.12 0 0 -528.2 -141.82 0c-146.52,216.68 -377.73,382.29 -692.96,496.1zm-455.7 1640.77c147.2,-68.58 278.26,-143 393.86,-222.52l0 547.17c-315.22,250.96 -651.28,444.3 -1008.19,581.45l0 -2496.53 614.33 0 0 1590.43zm-975.92 -1438.68l0 -461.08c178.11,-228.35 267.5,-564.67 267.5,-1008.97l598.87 0c0,34.29 -5.38,79.52 -16.14,136.42 -10.07,68.58 -20.84,119.65 -31.59,153.94l551.82 0 0 889.32 -520.23 0 0 -444.29 -157.28 0c-126.35,318.81 -356.89,563.94 -692.95,734.66zm4435.21 -270.67l0 -393.23c241.29,-148.1 388.49,-393.23 440.91,-735.39l709.77 0c-20.84,34.29 -36.97,85.36 -47.05,153.94 -10.75,11.67 -16.13,22.62 -16.13,34.29l378.4 0 0 -256.8 740.69 0 0 256.8 1370.46 0 0 358.94 -1370.46 0 0 188.22 1370.46 0 0 358.94 -1370.46 0 0 188.23 1370.46 0 0 358.94 -1370.46 0 0 205.73 1370.46 0 0 358.94 -1370.46 0 0 254.62 1417.51 0 0 410.01 -567.28 0c94.78,239.29 283.64,427.51 567.28,564.67l0 393.23c-640.54,-114.54 -1055.23,-433.35 -1244.11,-957.9l-173.4 0 0 974.68 -740.69 0 0 -974.68 -220.45 0c-188.87,512.87 -603.57,832.42 -1244.11,957.9l0 -393.23c282.97,-137.16 472.51,-325.38 566.61,-564.67l-566.61 0 0 -410.01 1464.56 0 0 -254.62 -1371.8 0 0 -1077.55 -94.1 0zm787.73 512.88l0 205.73 678.17 0 0 -205.73 -678.17 0zm0 -547.17l0 188.23 678.17 0 0 -188.23 -678.17 0zm142.49 -547.16c-10.08,22.62 -26.22,45.96 -47.05,68.58 -10.76,22.61 -36.97,62.74 -78.64,119.64l661.37 0 0 -188.22 -535.68 0zm3504.99 3231.19l0 -3779.09 3531.35 0 0 3061.21c10.75,501.2 -205,741.23 -645.91,717.88l-2885.44 0zm2568.2 -1213.25c20.83,433.36 -157.28,639.09 -535.69,616.48l-409.33 0 0 -445.03 125.69 0c115.6,11.67 168.04,-45.23 157.96,-170.72l0 -1181.87 -16.14 0c-62.5,855.03 -414.7,1454 -1055.23,1795.43l0 -495.37c262.79,-319.54 404.62,-752.9 425.45,-1300.06l-425.45 0 0 -461.08 1071.37 0 0 -291.09 661.37 0 0 291.09 254.73 0 0 -427.52 -2114.51 0 0 2821.91 1924.97 0c136.44,10.95 199.62,-62.74 189.54,-222.51l0 -1710.8 -254.73 0 0 1181.14z"/>
  <path class="fil3" d="M159875.13 172596.88l0 -1270.53 424.46 0c95.79,0 168.93,5.91 219.41,18.04 70.55,16.85 130.78,47.32 180.68,91.09 65.11,56.78 113.58,128.94 145.7,217.08 32.41,88.13 48.47,188.98 48.47,302.25 0,96.41 -10.89,181.89 -32.69,256.41 -21.8,74.53 -49.91,136.34 -84.04,185.14 -34.42,48.8 -71.7,87.25 -112.42,115.05 -40.44,28.09 -89.48,49.39 -146.85,63.88 -57.65,14.49 -123.61,21.59 -198.18,21.59l-444.54 0zm163.47 -149.06l262.72 0c81.16,0 144.83,-7.69 191.01,-23.36 46.17,-15.68 82.89,-37.56 110.42,-65.95 38.43,-39.93 68.54,-93.76 90.05,-161.19 21.52,-67.43 32.41,-149.05 32.41,-245.17 0,-133.09 -21.22,-235.42 -63.39,-306.99 -42.15,-71.57 -93.49,-119.48 -154,-143.73 -43.6,-17.45 -113.87,-26.03 -210.81,-26.03l-258.41 0 0 972.42zm1765.11 -149.05l156.59 21.29c-24.37,93.75 -69.98,166.8 -136.51,218.56 -66.55,51.75 -151.44,77.78 -254.97,77.78 -130.21,0 -233.46,-41.41 -309.75,-124.21 -76.29,-82.52 -114.43,-198.75 -114.43,-348.1 0,-154.38 38.43,-274.46 115.57,-359.63 77.16,-85.47 177.26,-128.06 300.29,-128.06 119.03,0 216.26,41.7 291.68,125.4 75.43,83.69 113.29,201.4 113.29,353.12 0,9.17 -0.29,23.07 -0.86,41.41l-665.1 0c5.74,100.85 33.27,178.33 83.17,231.86 49.62,53.53 111.86,80.45 186.14,80.45 55.35,0 102.68,-15.09 141.68,-45.25 39.3,-30.17 70.27,-78.38 93.21,-144.62zm-495.6 -250.21l497.32 0c-6.59,-77.48 -25.81,-135.45 -57.07,-174.19 -47.9,-60.04 -110.43,-90.21 -187,-90.21 -69.4,0 -127.63,23.96 -174.95,71.87 -47.03,47.91 -73.13,112.09 -78.3,192.53zm1522.47 211.17l147.99 21.29c-16.34,104.99 -57.65,186.91 -124.47,246.36 -66.83,59.44 -149.14,89.02 -246.37,89.02 -121.89,0 -219.98,-41.11 -293.97,-123.33 -74.28,-82.22 -111.28,-199.92 -111.28,-353.12 0,-99.37 16.06,-186.03 47.9,-260.56 31.83,-74.23 80.3,-130.12 145.69,-167.09 65.1,-37.27 135.94,-55.9 212.82,-55.9 96.64,0 176.08,25.14 237.46,75.71 61.67,50.57 101.24,122.44 118.46,215.31l-146.27 23.06c-14.05,-61.81 -38.72,-108.24 -74.58,-139.59 -35.56,-31.05 -78.58,-46.73 -129.05,-46.73 -76.29,0 -138.24,28.1 -186.14,84.29 -47.61,56.49 -71.42,145.21 -71.42,267.06 0,123.63 22.94,213.24 68.83,269.13 46.18,55.9 106.12,84 179.84,84 59.65,0 109.27,-18.64 148.84,-56.2 39.87,-37.26 65.11,-94.93 75.72,-172.71zm315.89 -123.33c0,-170.06 45.89,-296.04 137.95,-377.97 76.58,-68.02 170.37,-102.03 280.78,-102.03 122.47,0 222.85,41.41 300.86,124.21 77.73,82.52 116.73,196.97 116.73,342.78 0,118.3 -17.2,211.16 -51.62,278.89 -34.42,67.72 -84.61,120.37 -150.57,157.93 -65.69,37.56 -137.67,56.19 -215.4,56.19 -125.05,0 -226,-41.11 -303.15,-123.62 -77.15,-82.52 -115.58,-201.41 -115.58,-356.38zm154.87 0.3c0,117.7 24.95,205.84 74.86,264.1 50.19,58.56 113,87.84 189,87.84 75.15,0 137.67,-29.28 187.86,-88.14 49.91,-58.85 74.86,-148.46 74.86,-268.83 0,-113.57 -25.24,-199.63 -75.44,-257.89 -50.18,-58.56 -112.7,-87.84 -187.28,-87.84 -76,0 -138.81,28.98 -189,87.24 -49.91,58.27 -74.86,146.1 -74.86,263.52zm952.88 460.18l0 -920.96 135.95 0 0 141.07c34.69,-65.36 66.82,-108.54 96.36,-129.24 29.54,-21 61.95,-31.35 97.23,-31.35 51.05,0 102.96,16.56 155.73,49.39l-53.92 144.03c-36.71,-21.29 -73.42,-31.94 -110.13,-31.94 -32.98,0 -62.52,10.35 -88.63,30.76 -26.09,20.4 -44.73,48.8 -55.92,85.17 -16.93,55.31 -25.24,115.94 -25.24,181.89l0 481.18 -151.43 0zm1253.74 -115.34c-56.22,49.39 -110.42,83.99 -162.34,104.4 -51.91,20.4 -107.55,30.46 -167.2,30.46 -98.09,0 -173.51,-24.55 -226.29,-73.94 -52.77,-49.09 -79.16,-112.09 -79.16,-188.69 0,-44.95 10.04,-86.06 29.83,-123.32 20.07,-37.27 46.17,-66.84 78.3,-89.32 32.41,-22.48 68.54,-39.63 108.98,-51.16 29.83,-7.99 74.86,-15.68 134.8,-23.37 122.18,-14.78 212.52,-32.82 270.17,-53.53 0.57,-21.29 0.86,-34.9 0.86,-40.51 0,-63.29 -14.34,-107.95 -43.02,-133.98 -38.72,-35.19 -96.37,-52.64 -172.66,-52.64 -71.41,0 -124.18,13.01 -158.02,38.74 -34.14,25.73 -59.09,71.28 -75.43,136.93l-147.99 -21.29c13.47,-65.36 35.56,-118.3 66.53,-158.52 30.97,-40.22 75.72,-70.98 134.22,-92.87 58.23,-21.59 126.2,-32.53 203.06,-32.53 76.29,0 138.53,9.17 186.43,27.8 47.6,18.63 82.88,41.7 105.26,69.8 22.37,28.09 38.14,63.58 47.32,106.47 4.87,26.61 7.46,74.53 7.46,143.43l0 207.03c0,144.62 3.15,236.01 9.46,274.75 6.02,38.74 18.64,75.71 37,111.2l-158.32 0c-15.2,-32.83 -24.96,-71.28 -29.25,-115.34zm-12.05 -346.03c-55.07,23.07 -137.66,42.59 -247.8,58.56 -62.52,9.17 -106.69,19.52 -132.51,31.05 -25.8,11.54 -45.59,28.4 -59.65,50.28 -14.05,22.18 -21.22,46.73 -21.22,73.94 0,41.11 15.2,75.71 45.88,103.21 30.7,27.51 75.44,41.41 134.23,41.41 58.22,0 110.13,-13.01 155.74,-39.33 45.31,-26.03 78.87,-61.82 100.09,-107.07 16.35,-35.19 24.38,-86.95 24.38,-155.26l0.86 -56.79zm810.04 322.07l20.66 137.82c-42.45,9.17 -80.6,13.9 -113.86,13.9 -54.78,0 -97.23,-8.87 -127.63,-26.91 -30.12,-18.04 -51.34,-41.41 -63.67,-70.69 -12.34,-29.27 -18.36,-90.79 -18.36,-184.54l0 -530.58 -111.85 0 0 -120.66 111.85 0 0 -227.73 151.44 -93.75 0 321.48 151.42 0 0 120.66 -151.42 0 0 539.45c0,44.66 2.57,73.35 8.02,86.06 5.16,12.72 13.78,22.78 25.82,30.46 12.04,7.4 29.25,11.24 51.62,11.24 16.64,0 38.72,-2.07 65.96,-6.21zm245.05 -953.79l0 -177.44 151.43 0 0 177.44 -151.43 0zm0 1093.09l0 -920.96 151.43 0 0 920.96 -151.43 0zm421.14 -460.48c0,-170.06 45.89,-296.04 137.95,-377.97 76.58,-68.02 170.36,-102.03 280.78,-102.03 122.47,0 222.85,41.41 300.86,124.21 77.72,82.52 116.73,196.97 116.73,342.78 0,118.3 -17.21,211.16 -51.62,278.89 -34.42,67.72 -84.61,120.37 -150.58,157.93 -65.68,37.56 -137.66,56.19 -215.39,56.19 -125.05,0 -226,-41.11 -303.16,-123.62 -77.14,-82.52 -115.57,-201.41 -115.57,-356.38zm154.87 0.3c0,117.7 24.95,205.84 74.85,264.1 50.2,58.56 113.01,87.84 189.01,87.84 75.15,0 137.67,-29.28 187.86,-88.14 49.91,-58.85 74.86,-148.46 74.86,-268.83 0,-113.57 -25.25,-199.63 -75.44,-257.89 -50.19,-58.56 -112.71,-87.84 -187.28,-87.84 -76,0 -138.81,28.98 -189.01,87.24 -49.9,58.27 -74.85,146.1 -74.85,263.52zm954.6 460.18l0 -920.96 135.94 0 0 130.72c65.39,-100.26 160.04,-150.24 283.65,-150.24 53.92,0 103.25,10.06 148.28,29.87 45.03,19.82 78.87,46.14 101.24,78.37 22.38,32.24 38.14,70.69 47.04,115.05 5.45,28.98 8.32,79.56 8.32,151.72l0 565.47 -151.44 0 0 -559.56c0,-63.58 -5.73,-111.2 -17.5,-142.55 -11.75,-31.35 -32.69,-56.48 -62.52,-75.41 -29.83,-18.63 -65.11,-28.1 -105.25,-28.1 -64.25,0 -119.6,21 -166.36,63.29 -46.74,42 -69.97,122.15 -69.97,239.85l0 502.48 -151.43 0zm2030.57 -498.63l0 -149.06 521.41 0 0 470.83c-80.02,65.66 -162.62,115.34 -247.81,148.47 -85.17,33.12 -172.65,49.68 -262.13,49.68 -121.04,0 -230.88,-26.61 -329.83,-80.14 -98.66,-53.24 -173.51,-130.72 -223.7,-231.57 -50.49,-101.15 -75.72,-214.13 -75.72,-338.64 0,-123.62 24.95,-238.96 75.14,-346.32 50.19,-107.06 122.18,-186.62 216.25,-238.37 94.07,-52.05 202.49,-78.08 325.24,-78.08 88.91,0 169.5,14.79 241.49,44.66 71.99,29.87 128.48,71.27 169.21,124.21 41.02,53.24 71.99,122.74 93.22,208.21l-147.13 41.41c-18.65,-64.48 -41.6,-115.35 -68.84,-152.61 -27.53,-36.97 -66.54,-66.54 -117.59,-88.73 -50.77,-22.18 -107.27,-33.42 -169.5,-33.42 -74.28,0 -138.53,11.83 -193.02,35.2 -54.21,23.36 -97.8,54.12 -131.36,92.57 -33.26,38.15 -59.08,80.15 -77.43,125.69 -31.27,78.97 -47.04,164.14 -47.04,256.12 0,113.57 18.93,208.5 56.5,285.1 37.86,76.3 92.92,133.09 164.92,170.06 72.26,36.96 148.85,55.6 230.01,55.6 70.55,0 139.39,-14.2 206.49,-42.3 67.12,-28.39 117.89,-58.26 152.59,-90.49l0 -238.08 -361.37 0zm837 498.63l0 -920.96 135.95 0 0 141.07c34.7,-65.36 66.83,-108.54 96.37,-129.24 29.54,-21 61.95,-31.35 97.23,-31.35 51.05,0 102.96,16.56 155.73,49.39l-53.92 144.03c-36.71,-21.29 -73.42,-31.94 -110.13,-31.94 -32.98,0 -62.52,10.35 -88.63,30.76 -26.1,20.4 -44.73,48.8 -55.93,85.17 -16.92,55.31 -25.23,115.94 -25.23,181.89l0 481.18 -151.44 0zm613.6 -460.48c0,-170.06 45.89,-296.04 137.95,-377.97 76.58,-68.02 170.36,-102.03 280.78,-102.03 122.47,0 222.85,41.41 300.86,124.21 77.72,82.52 116.73,196.97 116.73,342.78 0,118.3 -17.21,211.16 -51.62,278.89 -34.42,67.72 -84.61,120.37 -150.58,157.93 -65.68,37.56 -137.66,56.19 -215.39,56.19 -125.05,0 -226,-41.11 -303.16,-123.62 -77.14,-82.52 -115.57,-201.41 -115.57,-356.38zm154.87 0.3c0,117.7 24.95,205.84 74.86,264.1 50.19,58.56 113,87.84 189,87.84 75.15,0 137.67,-29.28 187.86,-88.14 49.91,-58.85 74.86,-148.46 74.86,-268.83 0,-113.57 -25.24,-199.63 -75.44,-257.89 -50.18,-58.56 -112.7,-87.84 -187.28,-87.84 -76,0 -138.81,28.98 -189,87.24 -49.91,58.27 -74.86,146.1 -74.86,263.52zm1537.96 460.18l0 -136.93c-69.41,104.4 -163.48,156.45 -282.5,156.45 -52.49,0 -101.54,-10.35 -147.13,-31.05 -45.61,-21 -79.45,-47.03 -101.54,-78.38 -22.08,-31.64 -37.57,-70.09 -46.46,-115.64 -6.02,-30.75 -9.17,-79.26 -9.17,-145.5l0 -569.91 151.43 0 0 509.57c0,81.33 3.16,136.34 9.18,164.44 9.46,41.11 29.54,73.05 60.51,96.41 30.69,23.37 68.54,35.2 113.86,35.2 45.32,0 87.76,-11.83 127.34,-35.79 39.59,-23.95 67.69,-56.78 84.32,-97.89 16.35,-41.11 24.67,-101.15 24.67,-179.52l0 -492.42 151.43 0 0 920.96 -135.94 0zm469.32 353.12l0 -1274.08 137.67 0 0 120.96c32.41,-46.73 69.11,-81.92 110.13,-105.29 40.72,-23.36 90.34,-35.19 148.56,-35.19 76.29,0 143.4,20.11 201.62,60.63 58.23,40.22 102.11,97.3 131.94,170.65 29.54,73.64 44.45,154.08 44.45,241.92 0,93.75 -16.35,178.33 -49.05,253.75 -32.69,75.12 -80.3,132.79 -142.82,173.01 -62.24,39.93 -127.91,60.04 -196.75,60.04 -50.47,0 -95.79,-10.94 -135.66,-32.83 -40.15,-21.88 -72.84,-49.39 -98.66,-82.81l0 449.24 -151.43 0zm137.67 -807.98c0,118 23.23,205.25 69.4,261.74 46.47,56.48 102.67,84.88 168.65,84.88 67.1,0 124.46,-29.28 172.08,-87.84 47.9,-58.56 71.69,-149.06 71.69,-271.79 0,-117.12 -23.22,-204.66 -69.97,-262.92 -46.76,-58.27 -102.39,-87.25 -167.21,-87.25 -64.25,0 -121.04,31.05 -170.37,92.87 -49.61,62.1 -74.27,152.01 -74.27,270.31zm2194.05 9.17l163.47 42.59c-34.13,138.11 -95.5,243.1 -184.13,315.56 -88.61,72.46 -197.03,108.83 -325.24,108.83 -132.49,0 -240.33,-27.8 -323.51,-83.69 -83.17,-55.6 -146.27,-136.34 -189.57,-241.93 -43.31,-105.87 -65.11,-219.14 -65.11,-340.4 0,-132.2 24.38,-247.54 73.43,-346.03 49.04,-98.48 118.73,-173.31 209.08,-224.47 90.34,-51.16 189.86,-76.6 298.26,-76.6 123.34,0 226.87,32.24 310.62,97.01 84.03,64.77 142.54,155.56 175.52,272.68l-160.04 39.04c-28.39,-92.28 -69.97,-159.71 -124.18,-201.7 -54.2,-42.3 -122.46,-63.3 -204.78,-63.3 -94.35,0 -173.52,23.37 -236.9,70.1 -63.38,46.73 -108.13,109.72 -133.65,188.39 -25.82,78.96 -38.72,160.29 -38.72,243.99 0,107.95 15.2,202.29 45.6,282.74 30.41,80.74 77.73,140.77 141.97,180.7 64.24,39.93 133.65,59.74 208.51,59.74 91.2,0 168.06,-27.21 231.17,-81.33 63.09,-54.42 105.83,-134.86 128.2,-241.92zm385 -14.79c0,-170.06 45.89,-296.04 137.95,-377.97 76.58,-68.02 170.37,-102.03 280.78,-102.03 122.47,0 222.85,41.41 300.86,124.21 77.73,82.52 116.73,196.97 116.73,342.78 0,118.3 -17.2,211.16 -51.62,278.89 -34.42,67.72 -84.61,120.37 -150.57,157.93 -65.69,37.56 -137.67,56.19 -215.4,56.19 -125.05,0 -226,-41.11 -303.15,-123.62 -77.15,-82.52 -115.58,-201.41 -115.58,-356.38zm154.87 0.3c0,117.7 24.95,205.84 74.86,264.1 50.19,58.56 113,87.84 189,87.84 75.15,0 137.67,-29.28 187.87,-88.14 49.9,-58.85 74.85,-148.46 74.85,-268.83 0,-113.57 -25.24,-199.63 -75.44,-257.89 -50.18,-58.56 -112.7,-87.84 -187.28,-87.84 -76,0 -138.81,28.98 -189,87.24 -49.91,58.27 -74.86,146.1 -74.86,263.52zm997.62 460.18l0 -177.45 172.09 0 0 177.45 -172.09 0zm570.28 0l0 -177.45 172.08 0 0 177.45c0,65.36 -11.19,118.3 -33.84,158.52 -22.38,40.22 -58.23,71.57 -107.27,93.46l-41.3 -67.43c32.13,-14.49 55.64,-35.79 70.56,-63.59 15.2,-28.1 23.8,-68.32 25.52,-120.96l-85.75 0zm546.18 0l0 -1270.53 163.48 0 0 1121.47 605.73 0 0 149.06 -769.21 0zm1369.31 -139.3l20.66 137.82c-42.45,9.17 -80.6,13.9 -113.86,13.9 -54.78,0 -97.23,-8.87 -127.63,-26.91 -30.12,-18.04 -51.34,-41.41 -63.67,-70.69 -12.34,-29.27 -18.36,-90.79 -18.36,-184.54l0 -530.58 -111.85 0 0 -120.66 111.85 0 0 -227.73 151.44 -93.75 0 321.48 151.42 0 0 120.66 -151.42 0 0 539.45c0,44.66 2.57,73.35 8.02,86.06 5.16,12.72 13.78,22.78 25.82,30.46 12.04,7.4 29.25,11.24 51.62,11.24 16.64,0 38.72,-2.07 65.96,-6.21zm821.52 139.3l0 -116.82c-56.49,90.79 -139.67,136.34 -249.52,136.34 -71.13,0 -136.52,-20.11 -195.89,-60.63 -59.65,-40.22 -105.83,-96.71 -138.81,-168.87 -32.69,-72.46 -49.04,-155.56 -49.04,-249.61 0,-91.68 14.92,-174.79 44.46,-249.61 29.83,-74.53 74.28,-131.91 133.65,-171.54 59.08,-39.92 125.62,-59.74 198.75,-59.74 53.92,0 101.81,11.83 143.69,35.19 41.87,23.37 76,54.13 102.39,91.69l0 -456.93 151.43 0 0 1270.53 -141.11 0zm-478.39 -459.3c0,117.71 24.1,205.55 72.57,263.81 48.18,58.26 105.26,87.25 170.93,87.25 66.25,0 122.47,-27.8 168.93,-83.4 46.17,-55.61 69.41,-140.49 69.41,-254.64 0,-125.4 -23.52,-217.68 -70.84,-276.53 -47.04,-58.85 -105.26,-88.13 -174.39,-88.13 -67.39,0 -123.6,28.09 -168.92,84.58 -45.02,56.49 -67.69,145.51 -67.69,267.06zm997.62 459.3l0 -177.45 172.09 0 0 177.45 -172.09 0z"/>
  <path class="fil3" d="M159820.76 165522.54l192.94 -17.35c9.03,78.05 30.35,142 63.95,192.22 33.6,49.86 85.63,90.33 156.08,121.4 70.46,30.71 149.95,46.25 238.11,46.25 78.4,0 147.41,-11.57 207.39,-35.05 59.97,-23.49 104.41,-55.64 133.68,-96.47 29.26,-40.83 44.08,-85.27 44.08,-132.96 0,-48.42 -14.09,-90.69 -42.27,-127.18 -28.19,-36.13 -74.8,-66.48 -139.83,-91.41 -41.55,-15.9 -133.68,-41.19 -276.4,-75.51 -142.72,-34.33 -242.44,-66.48 -299.52,-96.83 -74.07,-39.03 -128.99,-87.44 -165.12,-144.89 -36.49,-57.45 -54.56,-122.12 -54.56,-193.3 0,-78.76 22.4,-152.11 66.84,-220.03 44.44,-68.29 109.12,-119.96 194.75,-155.37 85.27,-35.4 180.29,-53.11 284.71,-53.11 114.89,0 216.42,18.43 304.22,55.64 87.8,36.86 155.36,91.41 202.69,163.68 47.33,71.9 72.62,153.55 76.24,244.6l-197.28 15.18c-10.47,-97.92 -46.24,-171.99 -107.3,-221.85 -61.07,-50.22 -151.39,-75.15 -270.62,-75.15 -124.29,0 -214.98,22.76 -271.71,68.29 -56.72,45.52 -85.26,100.44 -85.26,164.75 0,55.65 20.23,101.53 60.33,137.66 39.75,35.77 142.72,72.99 309.64,110.56 166.93,37.94 281.46,70.82 343.61,99 89.96,41.55 156.8,93.94 199.8,157.89 42.99,63.59 64.31,136.94 64.31,220.04 0,82.74 -23.48,160.06 -70.81,233.04 -47.34,72.98 -114.9,129.71 -203.42,170.17 -88.52,40.47 -187.88,60.7 -298.8,60.7 -140.19,0 -257.61,-20.59 -352.27,-61.42 -95.03,-40.83 -169.1,-102.25 -222.93,-184.63 -54.2,-82.01 -82.38,-174.87 -85.27,-278.56zm1609.77 498.6l0 -1552.17 190.77 0 0 558.58c88.52,-103.7 200.16,-155.37 335.29,-155.37 82.74,0 154.64,16.26 216.06,49.14 61.06,32.88 104.78,78.04 131.16,135.85 26.37,57.81 39.38,142 39.38,251.83l0 712.14 -190.77 0 0 -711.41c0,-95.03 -20.6,-164.4 -61.42,-207.75 -41.19,-43.36 -99,-65.04 -174.15,-65.04 -56.01,0 -108.76,14.45 -158.26,43.72 -49.5,29.26 -84.54,69.01 -105.86,119.23 -20.95,49.86 -31.43,118.87 -31.43,207.03l0 614.22 -190.77 0zm2061.04 -140.91c-70.82,60.34 -139.11,102.61 -204.5,127.54 -65.4,24.93 -135.49,37.22 -210.65,37.22 -123.56,0 -218.59,-29.99 -285.07,-90.33 -66.48,-59.98 -99.72,-136.94 -99.72,-230.51 0,-54.92 12.65,-105.14 37.58,-150.67 25.29,-45.52 58.17,-81.65 98.63,-109.11 40.83,-27.46 86.36,-48.42 137.3,-62.51 37.58,-9.75 94.3,-19.15 169.82,-28.54 153.91,-18.07 267.72,-40.11 340.35,-65.4 0.72,-26.01 1.08,-42.63 1.08,-49.5 0,-77.32 -18.07,-131.88 -54.2,-163.67 -48.77,-43 -121.39,-64.31 -217.5,-64.31 -89.97,0 -156.45,15.89 -199.08,47.33 -43,31.43 -74.43,87.07 -95.03,167.28l-186.43 -26.01c16.98,-79.85 44.8,-144.52 83.82,-193.66 39.02,-49.14 95.39,-86.71 169.09,-113.45 73.35,-26.38 158.98,-39.75 255.81,-39.75 96.11,0 174.51,11.21 234.85,33.97 59.98,22.76 104.42,50.94 132.6,85.27 28.18,34.32 48.05,77.68 59.61,130.07 6.15,32.51 9.4,91.05 9.4,175.23l0 252.91c0,176.68 3.97,288.33 11.92,335.66 7.59,47.33 23.49,92.49 46.61,135.85l-199.44 0c-19.15,-40.11 -31.44,-87.07 -36.85,-140.91zm-15.18 -422.73c-69.37,28.18 -173.43,52.03 -312.17,71.54 -78.76,11.2 -134.4,23.85 -166.92,37.94 -32.52,14.09 -57.45,34.68 -75.15,61.42 -17.71,27.1 -26.74,57.09 -26.74,90.33 0,50.22 19.15,92.49 57.81,126.09 38.66,33.6 95.02,50.59 169.09,50.59 73.35,0 138.74,-15.9 196.19,-48.06 57.09,-31.79 99.36,-75.51 126.1,-130.79 20.59,-43 30.71,-106.23 30.71,-189.69l1.08 -69.37zm606.42 563.64l0 -1125.11 171.26 0 0 159.7c82.37,-122.48 201.61,-183.55 357.33,-183.55 67.92,0 130.07,12.29 186.79,36.5 56.73,24.2 99.36,56.36 127.55,95.74 28.18,39.39 48.05,86.36 59.25,140.55 6.86,35.41 10.48,97.19 10.48,185.35l0 690.82 -190.77 0 0 -683.59c0,-77.68 -7.23,-135.85 -22.04,-174.15 -14.82,-38.3 -41.19,-69.01 -78.77,-92.14 -37.57,-22.76 -82.01,-34.32 -132.6,-34.32 -80.93,0 -150.66,25.65 -209.55,77.32 -58.9,51.31 -88.16,149.22 -88.16,293.02l0 613.86 -190.77 0zm1291.09 93.22l184.27 26.01c7.58,57.09 29.26,98.64 64.67,125.01 47.33,35.05 112.01,52.75 194.02,52.75 88.16,0 156.45,-17.7 204.5,-52.75 48.06,-35.04 80.57,-84.54 97.56,-147.77 9.75,-38.66 14.45,-119.95 13.72,-243.88 -83.46,98.27 -187.15,147.41 -311.44,147.41 -154.64,0 -274.59,-55.64 -359.14,-167.28 -84.91,-111.29 -127.18,-244.97 -127.18,-400.69 0,-107.31 19.51,-206.31 58.17,-297 38.66,-90.69 95.02,-160.42 168.73,-209.92 73.71,-49.5 160.42,-74.07 260.14,-74.07 132.6,0 242.08,54.2 328.07,162.59l0 -138.74 175.59 0 0 971.55c0,175.24 -17.7,299.17 -53.47,372.15 -35.41,72.98 -92.13,130.79 -169.09,173.07 -77.32,42.27 -172.35,63.59 -285.07,63.59 -134.05,0 -242.08,-29.99 -324.46,-90.33 -82.74,-59.98 -122.48,-150.67 -119.59,-271.7zm156.09 -674.92c0,147.05 29.26,254.36 87.79,321.92 58.9,67.56 132.24,101.53 220.4,101.53 87.8,0 161.14,-33.6 220.76,-100.81 59.25,-67.2 88.88,-172.7 88.88,-316.5 0,-137.3 -30.71,-240.99 -91.77,-310.73 -61.06,-69.73 -134.77,-104.41 -220.76,-104.41 -84.91,0 -156.81,34.32 -216.42,102.97 -59.26,68.65 -88.88,170.54 -88.88,306.03zm1237.62 581.7l0 -1552.17 205.94 0 0 639.51 802.1 0 0 -639.51 205.95 0 0 1552.17 -205.95 0 0 -730.56 -802.1 0 0 730.56 -205.94 0zm2388.38 -140.91c-70.82,60.34 -139.11,102.61 -204.5,127.54 -65.4,24.93 -135.49,37.22 -210.65,37.22 -123.56,0 -218.59,-29.99 -285.07,-90.33 -66.48,-59.98 -99.72,-136.94 -99.72,-230.51 0,-54.92 12.65,-105.14 37.58,-150.67 25.29,-45.52 58.17,-81.65 98.63,-109.11 40.83,-27.46 86.36,-48.42 137.3,-62.51 37.58,-9.75 94.3,-19.15 169.82,-28.54 153.91,-18.07 267.72,-40.11 340.35,-65.4 0.72,-26.01 1.08,-42.63 1.08,-49.5 0,-77.32 -18.07,-131.88 -54.2,-163.67 -48.77,-43 -121.39,-64.31 -217.5,-64.31 -89.97,0 -156.45,15.89 -199.08,47.33 -43,31.43 -74.43,87.07 -95.03,167.28l-186.43 -26.01c16.98,-79.85 44.8,-144.52 83.82,-193.66 39.02,-49.14 95.39,-86.71 169.09,-113.45 73.35,-26.38 158.98,-39.75 255.81,-39.75 96.11,0 174.51,11.21 234.85,33.97 59.98,22.76 104.42,50.94 132.6,85.27 28.18,34.32 48.05,77.68 59.61,130.07 6.15,32.51 9.4,91.05 9.4,175.23l0 252.91c0,176.68 3.97,288.33 11.92,335.66 7.59,47.33 23.49,92.49 46.61,135.85l-199.44 0c-19.15,-40.11 -31.44,-87.07 -36.85,-140.91zm-15.18 -422.73c-69.37,28.18 -173.43,52.03 -312.17,71.54 -78.76,11.2 -134.4,23.85 -166.92,37.94 -32.52,14.09 -57.45,34.68 -75.15,61.42 -17.71,27.1 -26.74,57.09 -26.74,90.33 0,50.22 19.15,92.49 57.81,126.09 38.66,33.6 95.02,50.59 169.09,50.59 73.35,0 138.74,-15.9 196.19,-48.06 57.09,-31.79 99.36,-75.51 126.1,-130.79 20.59,-43 30.71,-106.23 30.71,-189.69l1.08 -69.37zm606.42 -771.75l0 -216.78 190.77 0 0 216.78 -190.77 0zm0 1335.39l0 -1125.11 190.77 0 0 1125.11 -190.77 0z"/>
  <polygon class="fil4" points="147979.59,173605.46 182300.96,173605.46 182300.96,173836.25 147979.59,173836.25 "/>
  <path class="fil2 str0" d="M138317.91 184405.52l25433.2 0c348.97,0 634.49,285.5 634.49,634.44l0 25431.12c0,348.94 -285.52,634.44 -634.49,634.44l-25433.2 0c-348.97,0 -634.49,-285.5 -634.49,-634.44l0 -25431.12c0,-348.94 285.52,-634.44 634.49,-634.44z"/>
  <path class="fil3" d="M140590.86 206475.11l0 -1430.65 2137.18 0 0 884.56c19.5,383.78 -152.25,565.6 -515.89,546.09l-1621.29 0zm-133.37 -2580.71l0 -427.81 870.09 0 0 -295.07 663.11 0 0 295.07 914.13 0 0 427.81 -914.13 0 0 485.69 826.05 0 0 412.72 -2300.11 0 0 -412.72 810.95 0 0 -485.69 -870.09 0zm-383.77 2608.39l-619.07 0c166.72,-393.21 279.96,-889.59 339.1,-1489.16l545.46 0c-19.5,579.44 -108.21,1075.82 -265.49,1489.16zm2064.19 -1045.62l-943.08 0 0 634.17 751.82 0c137.15,10.07 201.32,-58.51 191.26,-206.36l0 -427.81zm-2019.53 -1328.73c117.65,256.06 191.26,496.39 220.83,722.87l-575.03 0c-39.01,-235.92 -108.21,-476.88 -206.36,-722.87l560.56 0zm-29.57 -870.09c98.15,216.42 166.73,452.34 206.36,707.77l-575.03 0c-39.63,-215.79 -108.21,-451.72 -206.35,-707.77l575.02 0zm6021.84 1224.92l-1902.51 0 0 2049.72 -603.97 0 0 -2477.53 1238.77 0 0 -884.56 663.11 0 0 884.56 1223.67 0 0 1901.25c10.06,383.14 -171.76,569.36 -545.46,559.93l-368.68 0 0 -383.78 118.28 0c127.72,10.07 186.22,-54.1 176.79,-191.25l0 -1458.34zm-161.69 251.65l0 795.86c10.07,363.64 -152.25,540.43 -486.95,530.36l-1077.08 0 0 -1326.22 1564.03 0zm589.5 -1476.57c-20.13,245.99 -88.71,471.85 -206.36,678.83l-560.56 0c98.15,-196.92 167.35,-422.78 206.36,-678.83l560.56 0zm-2743.03 0l560.56 0c39.01,256.05 108.21,481.91 206.36,678.83l-560.56 0c-117.65,-206.98 -186.23,-432.84 -206.36,-678.83zm1164.53 1889.29l0 500.79 251.65 0c127.72,9.44 186.86,-49.07 177.42,-176.79l0 -324 -429.07 0zm2499.31 1032.41l0 -339.11c412.71,-137.78 697.71,-319.6 854.99,-546.08l-854.99 0 0 -397.62 1370.25 0 0 -191.88 649.27 0 0 191.88 1385.98 0 0 397.62 -1857.83 0c-98.15,147.84 -205.73,270.52 -324.01,368.67l0 413.34c59.14,-10.07 152.88,-34.6 280.6,-74.24 98.14,-19.5 171.75,-33.97 220.82,-44.04l0 339.11c-353.57,157.28 -707.77,251.02 -1061.35,279.96l0 -575.03c-186.85,59.14 -408.31,118.28 -663.73,177.42zm1431.28 -2332.21l0 -383.77 693.3 0 0 -294.43 559.93 0 0 294.43 707.78 0 0 383.77 -707.78 0 0 341 634.17 0 0 383.77 -1813.79 0 0 -383.77 619.69 0 0 -341 -693.3 0zm-620.33 855.63l0 -353.58c-216.42,108.22 -471.85,211.39 -766.92,309.54l0 -486.32c295.07,-69.21 550.5,-152.88 766.92,-251.03l0 -751.81 545.46 0 0 1533.2 -545.46 0zm2535.41 1489.79l0 309.53c-963.2,-69.2 -1592.34,-432.84 -1887.4,-1091.54l604.6 0c98.14,177.41 221.45,324.63 368.67,442.28 137.78,-98.15 230.89,-245.37 279.97,-442.28l575.03 0c-117.65,305.13 -285,520.92 -501.42,649.26 177.41,68.58 364.26,112.62 560.55,132.75zm-2639.22 -2344.79c-186.85,-88.7 -393.21,-157.28 -619.69,-206.35l0 -368.68c226.48,10.07 432.84,44.04 619.69,103.18l0 471.85zm4575.45 428.44l0 -339.1c176.79,-157.28 280.6,-408.31 309.54,-752.44l575.03 0c-9.44,88.7 -28.94,172.38 -58.51,251.02l1253.24 0 0 412.71 -751.82 0 0 455.5 724.76 0 0 1445.75c10.07,304.5 -147.21,457.38 -471.85,457.38l-191.88 0 0 -339.73 74.23 0c49.08,0 73.61,-28.94 73.61,-88.08l0 -1062.61 -208.87 0 0 1857.83 -546.09 0 0 -1857.83 -190 0 0 1490.42 -515.89 0 0 -1903.13 705.89 0 0 -455.5 -132.75 0c-137.15,186.86 -353.57,329.67 -648.64,427.81zm-426.55 1414.93c137.78,-59.14 260.46,-123.31 368.67,-191.89l0 471.85c-295.06,216.43 -609.63,383.15 -943.7,501.42l0 -2152.9 575.03 0 0 1371.52zm-913.5 -1240.65l0 -397.62c166.72,-196.92 250.39,-486.95 250.39,-870.09l560.56 0c0,29.57 -5.03,68.57 -15.1,117.65 -9.43,59.13 -19.5,103.17 -29.57,132.74l516.52 0 0 766.92 -486.95 0 0 -383.14 -147.22 0c-118.27,274.93 -334.07,486.32 -648.63,633.54zm4030.62 -233.41l0 -339.11c225.86,-127.71 363.64,-339.1 412.71,-634.17l664.37 0c-19.51,29.57 -34.61,73.61 -44.04,132.75 -10.07,10.07 -15.1,19.5 -15.1,29.57l354.2 0 0 -221.45 693.31 0 0 221.45 1282.8 0 0 309.54 -1282.8 0 0 162.31 1282.8 0 0 309.54 -1282.8 0 0 162.31 1282.8 0 0 309.54 -1282.8 0 0 177.41 1282.8 0 0 309.54 -1282.8 0 0 219.57 1326.84 0 0 353.57 -530.99 0c88.71,206.36 265.5,368.67 530.99,486.95l0 339.1c-599.56,-98.77 -987.74,-373.7 -1164.53,-826.05l-162.31 0 0 840.52 -693.31 0 0 -840.52 -206.36 0c-176.78,442.28 -564.96,717.84 -1164.52,826.05l0 -339.1c264.86,-118.28 442.28,-280.59 530.36,-486.95l-530.36 0 0 -353.57 1370.88 0 0 -219.57 -1284.06 0 0 -929.23 -88.08 0zm737.34 442.28l0 177.41 634.8 0 0 -177.41 -634.8 0zm0 -471.85l0 162.31 634.8 0 0 -162.31 -634.8 0zm133.38 -471.85c-9.44,19.5 -24.54,39.63 -44.04,59.13 -10.07,19.51 -34.6,54.11 -73.61,103.18l619.07 0 0 -162.31 -501.42 0zm3159.9 2786.43l0 -3258.92 3305.47 0 0 2639.86c10.07,432.21 -191.88,639.2 -604.6,619.06l-2700.87 0zm2403.92 -1046.25c19.51,373.71 -147.22,551.13 -501.42,531.62l-383.14 0 0 -383.77 117.65 0c108.21,10.07 157.28,-39.01 147.84,-147.22l0 -1019.2 -15.1 0c-58.51,737.35 -388.17,1253.87 -987.74,1548.3l0 -427.18c245.99,-275.56 378.74,-649.27 398.24,-1121.12l-398.24 0 0 -397.61 1002.84 0 0 -251.02 619.07 0 0 251.02 238.44 0 0 -368.67 -1979.25 0 0 2433.49 1801.84 0c127.71,9.44 186.85,-54.1 177.41,-191.89l0 -1475.32 -238.44 0 0 1018.57z"/>
  <path class="fil3" d="M139449.46 208044.29l145.45 -20.58c3.99,96.75 21.39,162.92 52.47,198.8 31.08,35.58 74.43,53.52 129.47,53.52 40.5,0 75.58,-9.71 104.95,-28.82 29.37,-19.41 49.91,-45.58 61.04,-78.52 11.11,-32.94 16.53,-85.87 16.53,-158.21l0 -870.77 162.56 0 0 860.77c0,105.57 -12.27,187.32 -37.07,245.55 -24.82,57.94 -63.89,102.05 -117.79,132.63 -53.61,30.29 -116.64,45.58 -188.79,45.58 -107.52,0 -189.65,-31.76 -246.69,-95.57 -57.03,-63.82 -84.41,-158.51 -82.13,-284.38zm1013.95 -728.13l0 -176.45 150.58 0 0 176.45 -150.58 0zm0 1086.91l0 -915.76 150.58 0 0 915.76 -150.58 0zm1080.97 -296.43l155.71 21.17c-24.24,93.23 -69.58,165.86 -135.75,217.33 -66.16,51.46 -150.57,77.34 -253.52,77.34 -129.48,0 -232.14,-41.17 -308.01,-123.51 -75.85,-82.05 -113.78,-197.62 -113.78,-346.13 0,-153.51 38.21,-272.91 114.93,-357.6 76.71,-84.99 176.24,-127.34 298.58,-127.34 118.35,0 215.03,41.47 290.04,124.69 75,83.22 112.65,200.27 112.65,351.13 0,9.12 -0.29,22.94 -0.86,41.17l-661.34 0c5.7,100.28 33.08,177.33 82.7,230.56 49.34,53.23 111.22,79.99 185.09,79.99 55.03,0 102.09,-15 140.87,-45 39.07,-29.99 69.87,-77.93 92.69,-143.8zm-492.8 -248.79l494.51 0c-6.56,-77.05 -25.67,-134.69 -56.75,-173.21 -47.63,-59.7 -109.8,-89.7 -185.94,-89.7 -69.02,0 -126.9,23.82 -173.97,71.46 -46.77,47.64 -72.72,111.46 -77.85,191.45zm1249.4 139.39l152.28 -14.11c7.14,63.52 23.96,115.57 50.48,156.45 26.52,40.58 67.59,73.52 123.2,98.81 55.61,24.99 118.35,37.64 187.93,37.64 61.89,0 116.36,-9.41 163.71,-28.53 47.33,-19.11 82.41,-45.29 105.51,-78.52 23.11,-33.23 34.79,-69.4 34.79,-108.22 0,-39.4 -11.12,-73.81 -33.36,-103.51 -22.24,-29.41 -59.04,-54.11 -110.37,-74.4 -32.79,-12.94 -105.52,-33.53 -218.16,-61.47 -112.65,-27.93 -191.36,-54.11 -236.42,-78.81 -58.47,-31.76 -101.81,-71.17 -130.34,-117.93 -28.8,-46.75 -43.05,-99.39 -43.05,-157.33 0,-64.11 17.68,-123.8 52.75,-179.09 35.08,-55.58 86.13,-97.63 153.72,-126.45 67.3,-28.82 142.3,-43.23 224.72,-43.23 90.69,0 170.83,14.99 240.13,45.28 69.3,30 122.63,74.41 159.98,133.22 37.37,58.52 57.33,124.98 60.19,199.09l-155.72 12.35c-8.27,-79.69 -36.5,-139.98 -84.7,-180.56 -48.19,-40.88 -119.49,-61.17 -213.6,-61.17 -98.11,0 -169.68,18.53 -214.46,55.58 -44.77,37.06 -67.31,81.76 -67.31,134.1 0,45.29 15.97,82.64 47.63,112.05 31.37,29.11 112.65,59.4 244.4,89.98 131.76,30.88 222.17,57.64 271.22,80.58 71,33.82 123.77,76.46 157.7,128.51 33.94,51.76 50.77,111.46 50.77,179.1 0,67.34 -18.55,130.27 -55.9,189.68 -37.36,59.4 -90.69,105.57 -160.56,138.51 -69.87,32.94 -148.3,49.4 -235.85,49.4 -110.65,0 -203.34,-16.76 -278.06,-49.99 -75,-33.23 -133.46,-83.22 -175.95,-150.27 -42.78,-66.76 -65.02,-142.34 -67.3,-226.74zm1270.61 405.83l0 -1263.36 150.58 0 0 454.64c69.87,-84.4 157.99,-126.45 264.65,-126.45 65.31,0 122.06,13.23 170.54,40 48.19,26.76 82.7,63.52 103.52,110.57 20.82,47.05 31.09,115.57 31.09,204.97l0 579.63 -150.58 0 0 -579.04c0,-77.34 -16.26,-133.81 -48.48,-169.1 -32.51,-35.28 -78.15,-52.93 -137.47,-52.93 -44.2,0 -85.83,11.76 -124.9,35.58 -39.07,23.82 -66.74,56.17 -83.57,97.05 -16.53,40.58 -24.8,96.75 -24.8,168.51l0 499.93 -150.58 0zm1626.81 -114.69c-55.89,49.11 -109.79,83.52 -161.41,103.81 -51.62,20.29 -106.95,30.29 -166.27,30.29 -97.53,0 -172.53,-24.41 -225,-73.52 -52.48,-48.82 -78.72,-111.46 -78.72,-187.62 0,-44.7 9.98,-85.58 29.67,-122.63 19.95,-37.06 45.91,-66.46 77.85,-88.81 32.22,-22.35 68.15,-39.41 108.37,-50.88 29.66,-7.94 74.43,-15.59 134.04,-23.23 121.48,-14.71 211.32,-32.65 268.64,-53.23 0.56,-21.17 0.86,-34.7 0.86,-40.29 0,-62.93 -14.26,-107.34 -42.78,-133.22 -38.5,-34.99 -95.82,-52.34 -171.69,-52.34 -71,0 -123.48,12.94 -157.14,38.52 -33.93,25.59 -58.74,70.87 -75,136.16l-147.15 -21.17c13.4,-65 35.36,-117.64 66.16,-157.63 30.8,-39.99 75.29,-70.58 133.47,-92.34 57.89,-21.47 125.48,-32.35 201.91,-32.35 75.86,0 137.74,9.12 185.37,27.64 47.34,18.53 82.42,41.47 104.67,69.41 22.24,27.93 37.92,63.22 47.05,105.86 4.85,26.47 7.42,74.11 7.42,142.63l0 205.86c0,143.8 3.13,234.67 9.4,273.2 6,38.52 18.54,75.28 36.8,110.57l-157.43 0c-15.11,-32.64 -24.81,-70.87 -29.09,-114.69zm-11.97 -344.07c-54.76,22.94 -136.9,42.35 -246.4,58.23 -62.17,9.11 -106.09,19.4 -131.76,30.87 -25.67,11.47 -45.35,28.24 -59.32,50 -13.98,22.05 -21.1,46.46 -21.1,73.52 0,40.87 15.11,75.28 45.62,102.63 30.52,27.35 75.01,41.17 133.47,41.17 57.9,0 109.52,-12.94 154.86,-39.11 45.06,-25.88 78.43,-61.46 99.53,-106.46 16.25,-34.99 24.24,-86.46 24.24,-154.39l0.86 -56.46zm478.66 458.76l0 -915.76 135.17 0 0 129.98c65.03,-99.69 159.13,-149.39 282.05,-149.39 53.62,0 102.67,10 147.44,29.7 44.77,19.71 78.42,45.88 100.67,77.93 22.25,32.06 37.93,70.29 46.77,114.4 5.42,28.82 8.27,79.11 8.27,150.86l0 562.28 -150.58 0 0 -556.4c0,-63.22 -5.7,-110.57 -17.4,-141.74 -11.68,-31.17 -32.5,-56.17 -62.16,-74.99 -29.66,-18.53 -64.74,-27.94 -104.67,-27.94 -63.87,0 -118.92,20.88 -165.41,62.93 -46.48,41.76 -69.58,121.46 -69.58,238.5l0 499.64 -150.57 0zm1019.08 75.87l145.44 21.18c6,46.46 23.1,80.28 51.05,101.75 37.36,28.52 88.4,42.93 153.15,42.93 69.58,0 123.48,-14.41 161.41,-42.93 37.93,-28.53 63.6,-68.82 77,-120.28 7.7,-31.47 11.4,-97.64 10.83,-198.5 -65.87,79.99 -147.72,119.98 -245.82,119.98 -122.06,0 -216.74,-45.29 -283.48,-136.16 -67.01,-90.57 -100.38,-199.38 -100.38,-326.13 0,-87.34 15.4,-167.92 45.92,-241.73 30.51,-73.82 75,-130.57 133.17,-170.86 58.18,-40.29 126.63,-60.29 205.34,-60.29 104.66,0 191.07,44.11 258.95,132.34l0 -112.93 138.59 0 0 790.78c0,142.62 -13.97,243.49 -42.2,302.9 -27.95,59.4 -72.72,106.45 -133.47,140.86 -61.03,34.41 -136.04,51.76 -225.01,51.76 -105.8,0 -191.07,-24.41 -256.1,-73.52 -65.3,-48.82 -96.67,-122.63 -94.39,-221.15zm123.2 -549.34c0,119.69 23.1,207.04 69.3,262.03 46.49,54.99 104.37,82.63 173.96,82.63 69.3,0 127.19,-27.35 174.25,-82.04 46.77,-54.7 70.16,-140.57 70.16,-257.62 0,-111.75 -24.25,-196.15 -72.44,-252.9 -48.2,-56.76 -106.37,-84.99 -174.25,-84.99 -67.02,0 -123.77,27.93 -170.83,83.81 -46.76,55.87 -70.15,138.8 -70.15,249.08zm1319.83 473.47l0 -1263.36 422.08 0c95.25,0 167.97,5.88 218.16,17.94 70.15,16.76 130.05,47.05 179.67,90.57 64.74,56.47 112.93,128.22 144.87,215.86 32.23,87.63 48.2,187.91 48.2,300.55 0,95.87 -10.83,180.85 -32.51,254.96 -21.67,74.11 -49.62,135.57 -83.56,184.09 -34.22,48.53 -71.3,86.76 -111.8,114.4 -40.2,27.94 -88.97,49.11 -146.01,63.52 -57.32,14.41 -122.91,21.47 -197.06,21.47l-442.04 0zm162.56 -148.22l261.22 0c80.72,0 144.02,-7.64 189.94,-23.23 45.92,-15.58 82.42,-37.35 109.8,-65.58 38.21,-39.7 68.16,-93.22 89.54,-160.27 21.4,-67.05 32.23,-148.22 32.23,-243.79 0,-132.34 -21.1,-234.09 -63.03,-305.25 -41.92,-71.17 -92.97,-118.81 -153.14,-142.93 -43.35,-17.35 -113.22,-25.87 -209.61,-25.87l-256.95 0 0 966.92zm1755.14 -148.21l155.71 21.17c-24.24,93.23 -69.58,165.86 -135.75,217.33 -66.15,51.46 -150.57,77.34 -253.52,77.34 -129.47,0 -232.14,-41.17 -308.01,-123.51 -75.85,-82.05 -113.78,-197.62 -113.78,-346.13 0,-153.51 38.21,-272.91 114.93,-357.6 76.72,-84.99 176.24,-127.34 298.59,-127.34 118.35,0 215.02,41.47 290.03,124.69 75,83.22 112.65,200.27 112.65,351.13 0,9.12 -0.29,22.94 -0.85,41.17l-661.35 0c5.7,100.28 33.08,177.33 82.7,230.56 49.34,53.23 111.22,79.99 185.09,79.99 55.03,0 102.09,-15 140.87,-45 39.08,-29.99 69.88,-77.93 92.69,-143.8zm-492.8 -248.79l494.51 0c-6.55,-77.05 -25.67,-134.69 -56.75,-173.21 -47.62,-59.7 -109.8,-89.7 -185.94,-89.7 -69.02,0 -126.9,23.82 -173.97,71.46 -46.77,47.64 -72.72,111.46 -77.85,191.45zm1513.88 209.97l147.15 21.17c-16.25,104.4 -57.32,185.86 -123.77,244.97 -66.44,59.11 -148.29,88.52 -244.97,88.52 -121.2,0 -218.74,-40.88 -292.31,-122.63 -73.87,-81.76 -110.65,-198.8 -110.65,-351.13 0,-98.81 15.97,-184.98 47.62,-259.08 31.66,-73.82 79.85,-129.4 144.88,-166.16 64.74,-37.05 135.17,-55.58 211.61,-55.58 96.1,0 175.1,25 236.12,75.28 61.32,50.29 100.67,121.75 117.79,214.09l-145.44 22.94c-13.98,-61.46 -38.5,-107.63 -74.15,-138.8 -35.37,-30.88 -78.15,-46.47 -128.34,-46.47 -75.85,0 -137.45,27.94 -185.08,83.82 -47.34,56.16 -71.01,144.39 -71.01,265.55 0,122.92 22.81,212.03 68.44,267.61 45.92,55.58 105.52,83.52 178.82,83.52 59.32,0 108.65,-18.53 148,-55.88 39.64,-37.05 64.74,-94.4 75.29,-171.74zm314.11 -122.63c0,-169.09 45.62,-294.37 137.17,-375.83 76.14,-67.64 169.4,-101.46 279.19,-101.46 121.77,0 221.59,41.17 299.16,123.51 77.29,82.05 116.07,195.86 116.07,340.84 0,117.63 -17.1,209.97 -51.33,277.32 -34.22,67.34 -84.13,119.69 -149.73,157.03 -65.3,37.35 -136.88,55.88 -214.17,55.88 -124.34,0 -224.72,-40.88 -301.44,-122.93 -76.71,-82.04 -114.92,-200.26 -114.92,-354.36zm153.99 0.29c0,117.05 24.81,204.68 74.43,262.62 49.92,58.22 112.37,87.34 187.94,87.34 74.72,0 136.89,-29.12 186.8,-87.64 49.62,-58.52 74.44,-147.63 74.44,-267.32 0,-112.92 -25.1,-198.5 -75.01,-256.43 -49.91,-58.23 -112.08,-87.34 -186.23,-87.34 -75.57,0 -138.02,28.82 -187.94,86.75 -49.62,57.93 -74.43,145.28 -74.43,262.02zm947.51 457.59l0 -915.76 135.17 0 0 140.28c34.51,-65 66.45,-107.93 95.82,-128.52 29.38,-20.88 61.6,-31.17 96.69,-31.17 50.75,0 102.38,16.47 154.85,49.11l-53.62 143.22c-36.5,-21.18 -73,-31.76 -109.5,-31.76 -32.8,0 -62.18,10.29 -88.13,30.58 -25.95,20.29 -44.49,48.52 -55.61,84.7 -16.83,54.99 -25.1,115.28 -25.1,180.85l0 478.47 -150.57 0zm1246.66 -114.69c-55.9,49.11 -109.8,83.52 -161.42,103.81 -51.62,20.29 -106.94,30.29 -166.26,30.29 -97.53,0 -172.53,-24.41 -225.01,-73.52 -52.47,-48.82 -78.71,-111.46 -78.71,-187.62 0,-44.7 9.98,-85.58 29.66,-122.63 19.96,-37.06 45.91,-66.46 77.86,-88.81 32.22,-22.35 68.15,-39.41 108.37,-50.88 29.65,-7.94 74.43,-15.59 134.04,-23.23 121.48,-14.71 211.32,-32.65 268.64,-53.23 0.56,-21.17 0.85,-34.7 0.85,-40.29 0,-62.93 -14.25,-107.34 -42.77,-133.22 -38.5,-34.99 -95.82,-52.34 -171.69,-52.34 -71,0 -123.48,12.94 -157.14,38.52 -33.93,25.59 -58.75,70.87 -75,136.16l-147.15 -21.17c13.4,-65 35.36,-117.64 66.16,-157.63 30.8,-39.99 75.29,-70.58 133.46,-92.34 57.9,-21.47 125.49,-32.35 201.92,-32.35 75.86,0 137.74,9.12 185.37,27.64 47.34,18.53 82.42,41.47 104.66,69.41 22.25,27.93 37.93,63.22 47.06,105.86 4.84,26.47 7.41,74.11 7.41,142.63l0 205.86c0,143.8 3.14,234.67 9.41,273.2 5.99,38.52 18.54,75.28 36.79,110.57l-157.42 0c-15.12,-32.64 -24.81,-70.87 -29.09,-114.69zm-11.98 -344.07c-54.75,22.94 -136.89,42.35 -246.39,58.23 -62.17,9.11 -106.09,19.4 -131.76,30.87 -25.67,11.47 -45.35,28.24 -59.32,50 -13.98,22.05 -21.11,46.46 -21.11,73.52 0,40.87 15.12,75.28 45.63,102.63 30.52,27.35 75.01,41.17 133.47,41.17 57.89,0 109.51,-12.94 154.86,-39.11 45.05,-25.88 78.42,-61.46 99.53,-106.46 16.25,-34.99 24.24,-86.46 24.24,-154.39l0.85 -56.46zm805.48 320.25l20.53 137.04c-42.2,9.12 -80.13,13.82 -113.22,13.82 -54.47,0 -96.67,-8.82 -126.9,-26.76 -29.94,-17.94 -51.05,-41.17 -63.31,-70.28 -12.26,-29.12 -18.25,-90.29 -18.25,-183.51l0 -527.58 -111.23 0 0 -119.98 111.23 0 0 -226.44 150.58 -93.22 0 319.66 150.57 0 0 119.98 -150.57 0 0 536.4c0,44.41 2.56,72.93 7.98,85.58 5.13,12.65 13.69,22.64 25.67,30.29 11.98,7.35 29.08,11.17 51.33,11.17 16.54,0 38.5,-2.05 65.59,-6.17zm243.68 -948.4l0 -176.45 150.57 0 0 176.45 -150.57 0zm0 1086.91l0 -915.76 150.57 0 0 915.76 -150.57 0zm418.77 -457.88c0,-169.09 45.62,-294.37 137.17,-375.83 76.14,-67.64 169.4,-101.46 279.19,-101.46 121.77,0 221.59,41.17 299.16,123.51 77.29,82.05 116.07,195.86 116.07,340.84 0,117.63 -17.1,209.97 -51.33,277.32 -34.22,67.34 -84.13,119.69 -149.73,157.03 -65.3,37.35 -136.88,55.88 -214.17,55.88 -124.34,0 -224.72,-40.88 -301.44,-122.93 -76.72,-82.04 -114.92,-200.26 -114.92,-354.36zm153.99 0.29c0,117.05 24.81,204.68 74.43,262.62 49.92,58.22 112.37,87.34 187.94,87.34 74.72,0 136.89,-29.12 186.8,-87.64 49.62,-58.52 74.43,-147.63 74.43,-267.32 0,-112.92 -25.09,-198.5 -75.01,-256.43 -49.9,-58.23 -112.07,-87.34 -186.22,-87.34 -75.57,0 -138.02,28.82 -187.94,86.75 -49.62,57.93 -74.43,145.28 -74.43,262.02zm949.22 457.59l0 -915.76 135.18 0 0 129.98c65.02,-99.69 159.12,-149.39 282.04,-149.39 53.62,0 102.67,10 147.44,29.7 44.78,19.71 78.43,45.88 100.67,77.93 22.25,32.06 37.93,70.29 46.78,114.4 5.42,28.82 8.27,79.11 8.27,150.86l0 562.28 -150.59 0 0 -556.4c0,-63.22 -5.7,-110.57 -17.39,-141.74 -11.69,-31.17 -32.51,-56.17 -62.17,-74.99 -29.66,-18.53 -64.74,-27.94 -104.66,-27.94 -63.88,0 -118.92,20.88 -165.41,62.93 -46.48,41.76 -69.58,121.46 -69.58,238.5l0 499.64 -150.58 0zm2019.11 -495.82l0 -148.21 518.47 0 0 468.17c-79.57,65.29 -161.71,114.69 -246.41,147.63 -84.7,32.94 -171.67,49.4 -260.66,49.4 -120.35,0 -229.57,-26.46 -327.96,-79.69 -98.1,-52.94 -172.53,-129.98 -222.44,-230.26 -50.19,-100.58 -75.29,-212.92 -75.29,-336.72 0,-122.93 24.81,-237.62 74.72,-344.37 49.91,-106.46 121.48,-185.56 215.03,-237.03 93.54,-51.76 201.34,-77.63 323.4,-77.63 88.41,0 168.55,14.7 240.12,44.4 71.58,29.7 127.77,70.87 168.27,123.51 40.77,52.94 71.57,122.05 92.68,207.04l-146.3 41.17c-18.54,-64.11 -41.35,-114.69 -68.45,-151.75 -27.37,-36.76 -66.16,-66.17 -116.92,-88.22 -50.48,-22.06 -106.66,-33.23 -168.54,-33.23 -73.87,0 -137.75,11.76 -191.94,34.99 -53.9,23.24 -97.25,53.82 -130.62,92.05 -33.07,37.94 -58.74,79.7 -76.99,124.98 -31.09,78.52 -46.78,163.22 -46.78,254.67 0,112.93 18.83,207.33 56.19,283.5 37.65,75.87 92.4,132.33 163.98,169.09 71.87,36.76 148.01,55.29 228.72,55.29 70.16,0 138.6,-14.12 205.33,-42.06 66.73,-28.23 117.22,-57.93 151.72,-89.98l0 -236.74 -359.33 0zm832.28 495.82l0 -915.76 135.18 0 0 140.28c34.51,-65 66.44,-107.93 95.82,-128.52 29.37,-20.88 61.6,-31.17 96.68,-31.17 50.76,0 102.38,16.47 154.85,49.11l-53.61 143.22c-36.51,-21.18 -73.01,-31.76 -109.51,-31.76 -32.8,0 -62.17,10.29 -88.12,30.58 -25.95,20.29 -44.49,48.52 -55.62,84.7 -16.82,54.99 -25.09,115.28 -25.09,180.85l0 478.47 -150.58 0zm610.13 -457.88c0,-169.09 45.63,-294.37 137.18,-375.83 76.14,-67.64 169.39,-101.46 279.19,-101.46 121.77,0 221.59,41.17 299.16,123.51 77.29,82.05 116.07,195.86 116.07,340.84 0,117.63 -17.11,209.97 -51.33,277.32 -34.22,67.34 -84.13,119.69 -149.73,157.03 -65.3,37.35 -136.88,55.88 -214.17,55.88 -124.34,0 -224.72,-40.88 -301.44,-122.93 -76.72,-82.04 -114.93,-200.26 -114.93,-354.36zm154 0.29c0,117.05 24.81,204.68 74.43,262.62 49.91,58.22 112.37,87.34 187.94,87.34 74.72,0 136.89,-29.12 186.8,-87.64 49.62,-58.52 74.43,-147.63 74.43,-267.32 0,-112.92 -25.09,-198.5 -75.01,-256.43 -49.9,-58.23 -112.07,-87.34 -186.22,-87.34 -75.57,0 -138.03,28.82 -187.94,86.75 -49.62,57.93 -74.43,145.28 -74.43,262.02zm1529.28 457.59l0 -136.16c-69.02,103.81 -162.55,155.57 -280.91,155.57 -52.18,0 -100.95,-10.29 -146.3,-30.88 -45.34,-20.88 -78.99,-46.76 -100.95,-77.93 -21.96,-31.47 -37.36,-69.7 -46.2,-114.98 -5.99,-30.59 -9.12,-78.82 -9.12,-144.69l0 -566.69 150.57 0 0 506.7c0,80.87 3.13,135.57 9.13,163.5 9.4,40.88 29.37,72.64 60.17,95.87 30.52,23.24 68.17,35 113.22,35 45.06,0 87.27,-11.76 126.62,-35.58 39.35,-23.82 67.3,-56.47 83.85,-97.34 16.25,-40.88 24.52,-100.58 24.52,-178.51l0 -489.64 150.58 0 0 915.76 -135.18 0zm466.69 351.13l0 -1266.89 136.88 0 0 120.28c32.22,-46.47 68.74,-81.46 109.51,-104.69 40.5,-23.24 89.83,-35 147.73,-35 75.86,0 142.59,20 200.49,60.29 57.89,39.99 101.52,96.75 131.17,169.68 29.38,73.23 44.22,153.21 44.22,240.56 0,93.22 -16.27,177.33 -48.77,252.32 -32.52,74.69 -79.85,132.04 -142.02,172.03 -61.89,39.7 -127.2,59.7 -195.64,59.7 -50.2,0 -95.25,-10.88 -134.9,-32.64 -39.92,-21.77 -72.43,-49.11 -98.1,-82.35l0 446.71 -150.57 0zm136.88 -803.42c0,117.33 23.1,204.09 69.02,260.26 46.2,56.17 102.09,84.4 167.69,84.4 66.73,0 123.77,-29.12 171.1,-87.34 47.64,-58.23 71.3,-148.22 71.3,-270.26 0,-116.46 -23.1,-203.5 -69.58,-261.44 -46.49,-57.93 -101.82,-86.75 -166.27,-86.75 -63.87,0 -120.34,30.88 -169.39,92.34 -49.35,61.76 -73.87,151.16 -73.87,268.79z"/>
  <polygon class="fil4" points="139413.98,206766.61 162655.04,206766.61 162655.04,206911.57 139413.98,206911.57 "/>
  <polygon class="fil4" points="168596.5,206354.98 191837.56,206354.98 191837.56,206499.94 168596.5,206499.94 "/>
  <path class="fil3" d="M143537.8 165725.7l0 -695.34c16.56,0 35.48,2.37 56.77,2.37 63.85,2.36 134.81,7.09 201.03,7.09 33.11,0 66.22,0 101.7,-2.36l439.91 702.43 134.81 -87.51 -404.43 -643.3c49.66,-11.83 96.97,-28.38 139.54,-49.67 139.54,-85.14 217.59,-255.43 217.59,-411.53 0,-179.75 -82.78,-361.86 -229.42,-435.18 -106.43,-54.39 -238.87,-70.95 -385.51,-70.95 -73.32,0 -158.46,4.73 -238.87,9.46l-118.26 7.1 -75.68 0 0 1667.39 160.82 0zm42.58 -1513.66c80.41,-4.73 156.09,-9.46 229.41,-9.46 122.99,0 231.78,14.19 312.19,52.03 78.05,52.03 141.91,179.75 141.91,293.27 0,111.16 -42.57,219.96 -134.81,271.99 -85.14,47.3 -208.13,56.76 -333.48,56.76 -61.49,0 -132.45,-2.36 -191.57,-4.73 -23.65,0 -44.94,-2.36 -66.23,-2.36l0 -655.14 42.58 -2.36zm1437.98 1480.55l778.12 0 0 -160.83 -312.2 0 0 -1487.64 -435.18 130.08 44.94 153.73 229.42 -70.96 0 1274.79 -305.1 0 0 160.83z"/>
  <path class="fil3" d="M138697.78 183065.14l0 -695.34c16.56,0 35.48,2.37 56.77,2.37 63.85,2.36 134.81,7.09 201.03,7.09 33.11,0 66.22,0 101.7,-2.36l439.91 702.43 134.81 -87.51 -404.43 -643.3c49.66,-11.83 96.97,-28.38 139.54,-49.67 139.54,-85.14 217.59,-255.43 217.59,-411.53 0,-179.75 -82.78,-361.86 -229.42,-435.18 -106.43,-54.39 -238.87,-70.95 -385.51,-70.95 -73.32,0 -158.46,4.73 -238.87,9.46l-118.26 7.1 -75.68 0 0 1667.39 160.82 0zm42.58 -1513.66c80.41,-4.73 156.09,-9.46 229.41,-9.46 122.99,0 231.78,14.19 312.19,52.03 78.05,52.03 141.91,179.75 141.91,293.27 0,111.16 -42.57,219.96 -134.81,271.99 -85.14,47.3 -208.13,56.76 -333.48,56.76 -61.49,0 -132.45,-2.36 -191.57,-4.73 -23.65,0 -44.94,-2.36 -66.23,-2.36l0 -655.14 42.58 -2.36zm1388.31 40.2c146.64,-21.28 302.73,-44.93 430.45,-44.93 184.48,0 328.75,49.66 331.11,245.97 2.37,134.81 -149,238.87 -314.55,354.76 -248.34,175.02 -522.69,368.96 -522.69,749.74 0,30.75 0,59.13 9.46,146.64l953.13 0 0 -163.2 -801.76 0c7.09,-288.54 241.24,-454.1 454.09,-600.73 201.04,-144.27 385.52,-269.62 383.15,-487.21 -4.73,-324.02 -217.59,-409.16 -491.94,-409.16 -149,0 -305.1,26.01 -454.1,47.3l23.65 160.82z"/>
  <path class="fil2 str0" d="M167178.77 184405.52l25433.2 0c348.97,0 634.49,285.5 634.49,634.44l0 25431.12c0,348.94 -285.52,634.44 -634.49,634.44l-25433.2 0c-348.97,0 -634.49,-285.5 -634.49,-634.44l0 -25431.12c0,-348.94 285.52,-634.44 634.49,-634.44z"/>
  <path class="fil3" d="M167737.9 183065.14l0 -695.34c16.56,0 35.48,2.37 56.77,2.37 63.85,2.36 134.81,7.09 201.03,7.09 33.11,0 66.22,0 101.7,-2.36l439.91 702.43 134.81 -87.51 -404.43 -643.3c49.66,-11.83 96.97,-28.38 139.54,-49.67 139.54,-85.14 217.59,-255.43 217.59,-411.53 0,-179.75 -82.78,-361.86 -229.42,-435.18 -106.43,-54.39 -238.87,-70.95 -385.51,-70.95 -73.32,0 -158.46,4.73 -238.87,9.46l-118.26 7.1 -75.68 0 0 1667.39 160.82 0zm42.58 -1513.66c80.41,-4.73 156.09,-9.46 229.41,-9.46 122.99,0 231.78,14.19 312.19,52.03 78.05,52.03 141.91,179.75 141.91,293.27 0,111.16 -42.57,219.96 -134.81,271.99 -85.14,47.3 -208.13,56.76 -333.48,56.76 -61.49,0 -132.45,-2.36 -191.57,-4.73 -23.65,0 -44.94,-2.36 -66.23,-2.36l0 -655.14 42.58 -2.36zm1369.39 1461.63c96.97,33.11 241.24,56.76 380.78,56.76 149,0 312.2,-35.47 418.62,-115.89 118.26,-96.97 175.02,-243.6 175.02,-385.51 0,-153.73 -68.59,-305.1 -191.57,-383.15 113.52,-82.77 179.75,-222.31 179.75,-364.22 0,-125.35 -54.4,-253.07 -167.93,-340.58 -96.96,-73.31 -229.41,-94.6 -368.95,-94.6 -141.91,0 -295.64,26.02 -413.89,44.94l26.01 158.46c108.8,-21.29 248.34,-42.57 387.88,-42.57 106.43,0 210.49,14.19 269.62,59.13 68.59,56.76 104.06,139.54 104.06,215.22 0,122.98 -75.68,245.97 -196.3,269.62 -75.68,14.19 -156.1,21.29 -238.87,26.02l-298.01 0 0 160.82 196.31 0c115.89,0 238.87,2.37 354.76,16.56 120.62,16.55 196.31,144.27 196.31,274.35 0,96.97 -37.85,196.3 -115.89,260.16 -73.32,59.13 -193.94,80.42 -316.93,80.42 -122.98,0 -245.97,-18.93 -328.75,-47.31l-52.03 151.37z"/>
  <polygon class="fil0 str0" points="143162.88,214932.42 146535.15,214932.42 146535.15,218304.69 143162.88,218304.69 "/>
  <path class="fil3" d="M149684.52 217008.95l257.95 67.48c-111.98,470.92 -403.91,706.37 -874.83,706.85 -613.05,-22.49 -930.82,-378.07 -953.32,-1065.78 37.33,-732.7 355.11,-1117.95 953.32,-1155.28 426.41,0 706.38,209.14 841.33,627.89l-246.94 89.97c-119.64,-344.09 -317.77,-512.07 -594.39,-504.89 -426.41,37.33 -658.04,347.92 -695.36,930.82 22.49,553.71 254.12,845.16 695.36,875.31 328.78,7.18 534.57,-183.29 616.88,-572.37zm1090.58 -818.84l0 347.92 -370.41 0 0 -347.92 370.41 0zm0 1222.76l0 325.43 -370.41 0 0 -325.43 370.41 0zm1379.26 -493.41c15.31,411.09 168.45,627.89 459.91,650.38 269.43,-14.84 407.74,-186.65 415.4,-515.9 -7.66,-313.95 -142.14,-478.58 -403.92,-493.41 -209.61,0 -366.59,119.64 -471.39,358.93zm1088.27 -863.83l-235.46 89.97c-67.47,-254.6 -194.77,-377.59 -381.42,-370.41 -284.27,30.15 -445.07,313.94 -482.4,852.34 127.3,-186.65 299.11,-280.45 515.9,-280.45 389.08,30.15 594.39,265.61 616.88,706.86 -22.49,448.9 -243.11,688.18 -661.86,717.86 -470.92,7.65 -710.21,-336.44 -717.86,-1031.81 7.65,-755.19 254.6,-1148.1 740.35,-1177.77 299.11,0 501.07,164.63 605.87,493.41zm1079.09 -257.95c-291.93,30.15 -445.07,325.43 -459.91,886.32 7.18,582.9 164.15,878.66 470.92,885.84 299.1,-14.84 452.25,-310.12 459.9,-885.84 -7.65,-576.2 -164.62,-871.48 -470.91,-886.32zm22.49 1974.12c-486.23,7.65 -725.52,-355.11 -717.86,-1087.8 7.18,-717.86 242.64,-1088.28 706.38,-1110.77 463.73,15.31 699.19,385.25 706.85,1110.77 0,710.2 -232.11,1072.96 -695.37,1087.8zm5394.97 -33.5l-257.95 0 0 -1491.72 22.01 -370.41 -89.49 392.43 -605.87 1469.7 -167.98 0 -594.39 -1491.72 -100.98 -358.93 33.5 380.95 0 1469.7 -257.95 0 0 -2120.08 325.43 0 605.39 1503.19 78.49 302.46 78.49 -302.46 605.87 -1503.19 325.43 0 0 2120.08zm899.62 -1548.19l0 347.92 -370.41 0 0 -347.92 370.41 0zm0 1222.76l0 325.43 -370.41 0 0 -325.43 370.41 0zm2142.1 325.43l-246.46 0 0 -1660.17c-142.14,134.47 -344.1,250.29 -605.88,347.92l0 -246.95c358.93,-156.97 579.56,-344.09 661.87,-560.88l190.47 0 0 2120.08zm1404.52 -1940.62c-291.93,30.15 -445.07,325.43 -459.91,886.32 7.18,582.9 164.15,878.66 470.92,885.84 299.1,-14.84 452.25,-310.12 459.9,-885.84 -7.65,-576.2 -164.62,-871.48 -470.91,-886.32zm22.49 1974.12c-486.23,7.65 -725.52,-355.11 -717.86,-1087.8 7.18,-717.86 242.64,-1088.28 706.38,-1110.77 463.73,15.31 699.19,385.25 706.85,1110.77 0,710.2 -232.11,1072.96 -695.37,1087.8zm1729.47 -1974.12c-291.93,30.15 -445.07,325.43 -459.91,886.32 7.18,582.9 164.15,878.66 470.92,885.84 299.1,-14.84 452.25,-310.12 459.9,-885.84 -7.65,-576.2 -164.62,-871.48 -470.91,-886.32zm22.49 1974.12c-486.23,7.65 -725.52,-355.11 -717.86,-1087.8 7.18,-717.86 242.64,-1088.28 706.38,-1110.77 463.73,15.31 699.19,385.25 706.85,1110.77 0,710.2 -232.11,1072.96 -695.37,1087.8zm5047.05 -2153.58l-818.84 1222.75 0 897.33 -235.46 0 0 -897.33 -773.85 -1222.75 280.44 0 616.88 1043.29 650.38 -1043.29 280.45 0zm776.15 571.89l0 347.92 -370.41 0 0 -347.92 370.41 0zm0 1222.76l0 325.43 -370.41 0 0 -325.43 370.41 0zm2142.1 325.43l-246.46 0 0 -1660.17c-142.14,134.47 -344.1,250.29 -605.88,347.92l0 -246.95c358.93,-156.97 579.56,-344.09 661.87,-560.88l190.47 0 0 2120.08zm1404.52 -1940.62c-291.93,30.15 -445.07,325.43 -459.91,886.32 7.18,582.9 164.15,878.66 470.92,885.84 299.1,-14.84 452.25,-310.12 459.9,-885.84 -7.65,-576.2 -164.62,-871.48 -470.91,-886.32zm22.49 1974.12c-486.23,7.65 -725.52,-355.11 -717.86,-1087.8 7.18,-717.86 242.64,-1088.28 706.38,-1110.77 463.73,15.31 699.19,385.25 706.85,1110.77 0,710.2 -232.11,1072.96 -695.37,1087.8zm1729.47 -1974.12c-291.93,30.15 -445.07,325.43 -459.91,886.32 7.18,582.9 164.15,878.66 470.92,885.84 299.1,-14.84 452.25,-310.12 459.9,-885.84 -7.65,-576.2 -164.62,-871.48 -470.91,-886.32zm22.49 1974.12c-486.23,7.65 -725.52,-355.11 -717.86,-1087.8 7.18,-717.86 242.64,-1088.28 706.38,-1110.77 463.73,15.31 699.19,385.25 706.85,1110.77 0,710.2 -232.11,1072.96 -695.37,1087.8zm5495.95 -33.5l-695.84 -1065.79 -347.45 370.42 0 695.37 -269.43 0 0 -2120.08 269.43 0 0 1099.28 998.31 -1099.28 347.44 0 -840.85 886.31 874.83 1233.77 -336.44 0zm1123.6 -1548.19l0 347.92 -370.41 0 0 -347.92 370.41 0zm0 1222.76l0 325.43 -370.41 0 0 -325.43 370.41 0zm764.67 -403.92l673.35 0 0 -998.3 -673.35 998.3zm1121.78 224.45l-201.96 0 0 504.9 -246.47 0 0 -504.9 -975.81 0 0 -145.96 1009.31 -1469.22 212.97 0 0 1390.73 201.96 0 0 224.45zm1023.09 -1435.72c-291.93,30.15 -445.07,325.43 -459.91,886.32 7.18,582.9 164.15,878.66 470.92,885.84 299.1,-14.84 452.25,-310.12 459.9,-885.84 -7.65,-576.2 -164.62,-871.48 -470.91,-886.32zm22.49 1974.12c-486.23,7.65 -725.52,-355.11 -717.86,-1087.8 7.18,-717.86 242.64,-1088.28 706.38,-1110.77 463.73,15.31 699.19,385.25 706.85,1110.77 0,710.2 -232.11,1072.96 -695.37,1087.8z"/>
  <g id="_2638372480096">
   <path class="fil0" d="M144788.42 186822.13l12492.18 0c724.71,0 1317.64,592.93 1317.64,1317.64l0 12174.19c0,724.71 -592.93,1317.64 -1317.64,1317.64l-12492.18 0c-724.71,0 -1317.64,-592.93 -1317.64,-1317.64l0 -12174.19c0,-724.71 592.93,-1317.64 1317.64,-1317.64z"/>
   <path class="fil1" d="M151132.67 194790.44l-1911.72 1276.01c-677.52,1288.75 -1313.51,2351.53 -1907.96,3188.33 -594.45,836.8 -1004.46,1255.19 -1230.06,1255.19 -147.51,0 -262.71,-51.46 -345.59,-154.38 -82.89,-102.92 -126.83,-208.08 -131.83,-315.48 -22.51,-483.28 210.08,-1078.44 697.78,-1785.46 487.68,-707.03 1263.97,-1458.8 2328.84,-2255.32 787.67,-1718.35 1327.96,-3159.24 1620.86,-4322.7 292.89,-1163.47 430.59,-1933.14 413.08,-2309.03 -7.5,-161.09 -76.32,-241.64 -206.48,-241.64 -1081.93,0 -2157.01,2205.98 -2456.54,3007.1 -437.1,1169.08 -826.06,2367.69 137.03,1684.77 164.88,-116.9 273.98,-172.27 316.95,-181.23 8.68,0 13.44,8.96 14.26,26.86 19.86,425.48 -1306.33,1919.7 -1706.72,1919.7 -130.16,0 -217.46,-58.17 -261.92,-174.51 -44.47,-116.35 -73.17,-313.24 -86.08,-590.68 -47.1,-1011.32 121.07,-2058.44 504.49,-3141.34 454.6,-1283.99 2054.61,-3570.94 3621.17,-3570.94 277.66,0 496.59,89.5 656.77,268.49 160.18,179 247.77,429.59 262.78,751.78 12.5,268.49 -13.43,550.4 -77.76,845.75l-394.15 1597.52c-181.51,760.72 -365.33,1378.25 -551.49,1852.58 -186.16,474.34 -472.44,1127.66 -858.85,1959.99l1267.77 -724.93 285.37 133.57z"/>
   <path class="fil1" d="M151496.01 195087.01c-1283.91,-593.5 -1479.05,-1687.84 -624.73,-2933.28 795.63,-1159.9 3342.64,-1802.29 4828.71,-1802.29 5151.6,0 -694.92,2719.23 65.07,2072.27 1126.45,-958.91 -2281.83,-178.29 -3110.66,160.53 -833,340.51 -1249.49,715.08 -1249.49,1123.69 0,77.84 23.86,153.23 71.59,226.2 986.82,1508.69 5961.39,1457.18 4034.77,4341.55 -732.08,1096 -3172.11,1473.94 -4483.81,1473.94 -763.56,0 -1360.1,-82.7 -1789.62,-248.09 -429.51,-165.39 -644.26,-398.89 -644.26,-700.48 0,-1014.67 1844.57,-1404.49 1405.67,-1240.45 -1055.9,487.48 1338.41,647.3 2954.5,291.87 3454.97,-759.85 -65.92,-2122.08 -1457.74,-2765.46z"/>
  </g>
  <g id="_2638372479232">
   <path class="fil0" d="M150293.19 164302.04l7104.78 0c412.17,0 749.39,337.23 749.39,749.4l0 6923.93c0,412.17 -337.22,749.39 -749.39,749.39l-7104.78 0c-412.17,0 -749.4,-337.22 -749.4,-749.39l0 -6923.93c0,-412.17 337.23,-749.4 749.4,-749.4z"/>
   <path class="fil1" d="M153901.41 168833.93l-1087.27 725.72c-385.34,732.96 -747.05,1337.4 -1085.13,1813.32 -338.09,475.92 -571.28,713.88 -699.59,713.88 -83.89,0 -149.41,-29.27 -196.55,-87.81 -47.14,-58.53 -72.13,-118.34 -74.98,-179.42 -12.79,-274.86 119.49,-613.35 396.86,-1015.46 277.36,-402.11 718.87,-829.68 1324.5,-1282.69 447.98,-977.29 755.26,-1796.78 921.85,-2458.49 166.57,-661.71 244.89,-1099.45 234.93,-1313.23 -4.27,-91.62 -43.41,-137.43 -117.43,-137.43 -615.34,0 -1226.78,1254.63 -1397.13,1710.26 -248.59,664.9 -469.81,1346.59 77.93,958.19 93.77,-66.49 155.83,-97.98 180.26,-103.07 4.94,0 7.65,5.09 8.12,15.27 11.29,241.99 -742.96,1091.81 -970.68,1091.81 -74.03,0 -123.68,-33.08 -148.97,-99.25 -25.29,-66.18 -41.61,-178.15 -48.95,-335.94 -26.79,-575.18 68.85,-1170.72 286.92,-1786.61 258.55,-730.25 1168.54,-2030.92 2059.5,-2030.92 157.92,0 282.43,50.9 373.53,152.7 91.1,101.8 140.92,244.32 149.45,427.56 7.11,152.7 -7.64,313.04 -44.22,481.01l-224.17 908.57c-103.23,432.66 -207.78,783.87 -313.65,1053.64 -105.88,269.77 -268.7,641.34 -488.47,1114.72l721.03 -412.3 162.31 75.97z"/>
   <path class="fil1" d="M154108.05 169002.6c-730.21,-337.55 -841.19,-959.94 -355.31,-1668.27 452.51,-659.68 1901.09,-1025.03 2746.28,-1025.03 2929.91,0 -395.23,1546.53 37,1178.58 640.66,-545.37 -1297.76,-101.4 -1769.15,91.3 -473.76,193.66 -710.63,406.69 -710.63,639.08 0,44.27 13.57,87.15 40.71,128.66 561.24,858.05 3390.47,828.75 2294.73,2469.2 -416.36,623.33 -1804.1,838.28 -2550.11,838.28 -434.27,0 -773.54,-47.03 -1017.83,-141.09 -244.28,-94.07 -366.41,-226.87 -366.41,-398.39 0,-577.08 1049.08,-798.79 799.45,-705.49 -600.53,277.24 761.21,368.14 1680.34,165.99 1964.97,-432.15 -37.49,-1206.9 -829.07,-1572.82z"/>
  </g>
  <g id="LOGO.cdr">
   <g>
    <path class="fil0" d="M7223.9 11433.43l7104.78 0c412.17,0 749.39,337.23 749.39,749.4l0 6923.93c0,412.17 -337.22,749.39 -749.39,749.39l-7104.78 0c-412.17,0 -749.4,-337.22 -749.4,-749.39l0 -6923.93c0,-412.17 337.23,-749.4 749.4,-749.4z"/>
    <path class="fil1" d="M10832.11 15965.32l-1087.27 725.72c-385.33,732.96 -747.04,1337.4 -1085.13,1813.32 -338.08,475.92 -571.27,713.87 -699.58,713.87 -83.9,0 -149.41,-29.26 -196.55,-87.8 -47.14,-58.53 -72.13,-118.34 -74.98,-179.42 -12.8,-274.86 119.49,-613.35 396.86,-1015.46 277.36,-402.12 718.87,-829.68 1324.5,-1282.69 447.98,-977.29 755.26,-1796.78 921.84,-2458.49 166.58,-661.71 244.89,-1099.45 234.94,-1313.23 -4.27,-91.62 -43.41,-137.43 -117.44,-137.43 -615.33,0 -1226.77,1254.63 -1397.12,1710.26 -248.6,664.9 -469.82,1346.59 77.93,958.19 93.77,-66.49 155.82,-97.98 180.26,-103.07 4.94,0 7.65,5.09 8.12,15.27 11.29,241.99 -742.97,1091.81 -970.68,1091.81 -74.03,0 -123.68,-33.08 -148.97,-99.25 -25.29,-66.18 -41.61,-178.16 -48.96,-335.94 -26.78,-575.18 68.86,-1170.72 286.93,-1786.61 258.54,-730.25 1168.53,-2030.92 2059.5,-2030.92 157.91,0 282.42,50.9 373.52,152.7 91.11,101.8 140.92,244.32 149.46,427.56 7.11,152.7 -7.64,313.04 -44.23,481.01l-224.17 908.57c-103.23,432.65 -207.77,783.86 -313.65,1053.64 -105.88,269.77 -268.7,641.34 -488.46,1114.71l721.03 -412.29 162.3 75.97z"/>
    <path class="fil1" d="M11038.76 16133.99c-730.21,-337.55 -841.2,-959.94 -355.31,-1668.27 452.5,-659.68 1901.08,-1025.03 2746.27,-1025.03 2929.91,0 -395.23,1546.53 37.01,1178.58 640.65,-545.37 -1297.76,-101.4 -1769.16,91.3 -473.75,193.66 -710.62,406.69 -710.62,639.08 0,44.27 13.57,87.15 40.71,128.65 561.24,858.05 3390.47,828.76 2294.73,2469.21 -416.36,623.33 -1804.1,838.28 -2550.11,838.28 -434.27,0 -773.55,-47.03 -1017.83,-141.09 -244.28,-94.07 -366.42,-226.87 -366.42,-398.4 0,-577.07 1049.08,-798.78 799.46,-705.48 -600.53,277.24 761.2,368.14 1680.34,165.99 1964.97,-432.16 -37.49,-1206.9 -829.07,-1572.82z"/>
   </g>
  </g>
 </g>
</svg>
