<svg xmlns="http://www.w3.org/2000/svg" viewBox="0 0 600 600" width="600" height="600">
  <defs>
    <linearGradient id="bg" x1="0%" y1="0%" x2="100%" y2="100%">
      <stop offset="0%" style="stop-color:#1A2744"/>
      <stop offset="100%" style="stop-color:#3A5A8C"/>
    </linearGradient>
  </defs>
  <rect width="600" height="600" fill="url(#bg)"/>
  <g transform="translate(300,260)" fill="none" stroke="#fff" stroke-width="3" stroke-linecap="round" stroke-linejoin="round">
    <rect x="-80" y="-70" width="160" height="140" rx="4"/>
    <line x1="-80" y1="-30" x2="80" y2="-30"/>
    <line x1="-80" y1="10" x2="80" y2="10"/>
    <line x1="-80" y1="50" x2="80" y2="50"/>
    <rect x="-60" y="-60" width="25" height="25" rx="2"/>
    <rect x="-20" y="-60" width="25" height="25" rx="2"/>
    <rect x="35" y="-60" width="25" height="25" rx="2"/>
    <rect x="-60" y="-20" width="25" height="25" rx="2"/>
    <rect x="-20" y="-20" width="25" height="25" rx="2"/>
    <rect x="35" y="-20" width="25" height="25" rx="2"/>
    <rect x="-60" y="20" width="25" height="25" rx="2"/>
    <rect x="35" y="20" width="25" height="25" rx="2"/>
  </g>
  <text x="300" y="500" text-anchor="middle" fill="#fff" font-family="Microsoft YaHei,PingFang SC,sans-serif" font-size="32" font-weight="bold">书房设计</text>
  <text x="300" y="540" text-anchor="middle" fill="#D4AF37" font-family="Microsoft YaHei,PingFang SC,sans-serif" font-size="20">Study Room</text>
</svg>