<svg xmlns="http://www.w3.org/2000/svg" viewBox="0 0 800 600" width="800" height="600">
  <defs>
    <linearGradient id="bg" x1="0%" y1="0%" x2="100%" y2="100%">
      <stop offset="0%" style="stop-color:#5C3D2E"/>
      <stop offset="100%" style="stop-color:#E8860C"/>
    </linearGradient>
  </defs>
  <rect width="800" height="600" fill="url(#bg)"/>
  <g transform="translate(400,250)" fill="none" stroke="#fff" stroke-width="3" stroke-linecap="round" stroke-linejoin="round">
    <path d="M-30,60 L-30,-20 Q-30,-50 0,-50 Q30,-50 30,-20 L30,60"/>
    <ellipse cx="0" cy="-55" rx="35" ry="10"/>
    <path d="M-35,-55 Q-35,-65 -25,-65 L25,-65 Q35,-65 35,-55"/>
    <line x1="-20" y1="60" x2="-20" y2="30"/>
    <line x1="20" y1="60" x2="20" y2="30"/>
    <path d="M-25,30 Q0,20 25,30" stroke-width="2"/>
    <path d="M-60,60 L60,60"/>
    <path d="M-15,-40 Q0,-45 15,-40" stroke-width="2"/>
  </g>
  <text x="400" y="480" text-anchor="middle" fill="#fff" font-family="Microsoft YaHei,PingFang SC,sans-serif" font-size="36" font-weight="bold">咖啡厅</text>
  <text x="400" y="520" text-anchor="middle" fill="#D4AF37" font-family="Microsoft YaHei,PingFang SC,sans-serif" font-size="20">Café</text>
</svg>