<svg xmlns="http://www.w3.org/2000/svg" viewBox="0 0 800 600" width="800" height="600">
  <defs>
    <linearGradient id="bg" x1="0%" y1="0%" x2="100%" y2="100%">
      <stop offset="0%" style="stop-color:#1A1A2E"/>
      <stop offset="100%" style="stop-color:#D4AF37"/>
    </linearGradient>
  </defs>
  <rect width="800" height="600" fill="url(#bg)"/>
  <g transform="translate(400,250)" fill="none" stroke="#fff" stroke-width="3" stroke-linecap="round" stroke-linejoin="round">
    <rect x="-80" y="-30" width="160" height="90" rx="4"/>
    <path d="M-100,-30 L0,-70 L100,-30"/>
    <rect x="-60" y="0" width="30" height="40" rx="2"/>
    <rect x="30" y="0" width="30" height="40" rx="2"/>
    <rect x="-15" y="15" width="30" height="40" rx="2"/>
    <circle cx="0" cy="35" r="3" fill="#fff"/>
    <line x1="-45" y1="0" x2="-45" y2="40"/>
    <line x1="45" y1="0" x2="45" y2="40"/>
    <rect x="-55" y="-20" width="20" height="15" rx="2"/>
    <rect x="35" y="-20" width="20" height="15" rx="2"/>
  </g>
  <text x="400" y="480" text-anchor="middle" fill="#fff" font-family="Microsoft YaHei,PingFang SC,sans-serif" font-size="36" font-weight="bold">轻奢大宅</text>
  <text x="400" y="520" text-anchor="middle" fill="#D4AF37" font-family="Microsoft YaHei,PingFang SC,sans-serif" font-size="20">Luxury Mansion</text>
</svg>