<svg xmlns="http://www.w3.org/2000/svg" viewBox="0 0 800 600" width="800" height="600">
  <defs>
    <linearGradient id="bg" x1="0%" y1="0%" x2="100%" y2="100%">
      <stop offset="0%" style="stop-color:#5C3D2E"/>
      <stop offset="100%" style="stop-color:#D4AF37"/>
    </linearGradient>
  </defs>
  <rect width="800" height="600" fill="url(#bg)"/>
  <g transform="translate(400,250)" fill="none" stroke="#fff" stroke-width="3" stroke-linecap="round" stroke-linejoin="round">
    <rect x="-15" y="-60" width="30" height="80" rx="2" transform="rotate(-30,0,0)"/>
    <rect x="-8" y="-50" width="16" height="20" rx="1" transform="rotate(-30,0,0)"/>
    <path d="M40,-40 L60,-20 L50,-10 L30,-30 Z"/>
    <circle cx="50" cy="-30" r="8"/>
    <path d="M-50,20 L-30,40 L-40,50 L-60,30 Z"/>
    <line x1="-60" y1="30" x2="-80" y2="50" stroke-width="2"/>
    <line x1="-40" y1="50" x2="-20" y2="70" stroke-width="2"/>
    <rect x="-10" y="10" width="20" height="50" rx="2"/>
    <path d="M-10,10 L0,-5 L10,10"/>
  </g>
  <text x="400" y="480" text-anchor="middle" fill="#fff" font-family="Microsoft YaHei,PingFang SC,sans-serif" font-size="36" font-weight="bold">施工团队</text>
  <text x="400" y="520" text-anchor="middle" fill="#D4AF37" font-family="Microsoft YaHei,PingFang SC,sans-serif" font-size="20">Construction Team</text>
</svg>