<svg xmlns="http://www.w3.org/2000/svg" viewBox="0 0 800 600" width="800" height="600">
  <defs>
    <linearGradient id="bg" x1="0%" y1="0%" x2="100%" y2="100%">
      <stop offset="0%" style="stop-color:#1A1A2E"/>
      <stop offset="100%" style="stop-color:#D4AF37"/>
    </linearGradient>
  </defs>
  <rect width="800" height="600" fill="url(#bg)"/>
  <g transform="translate(400,250)" fill="none" stroke="#fff" stroke-width="3" stroke-linecap="round" stroke-linejoin="round">
    <path d="M-50,60 L-50,-20 Q-50,-50 0,-50 Q50,-50 50,-20 L50,60"/>
    <path d="M-60,60 L60,60"/>
    <path d="M-30,-50 Q0,-70 30,-50" stroke-width="2"/>
    <circle cx="0" cy="-60" r="8"/>
    <line x1="0" y1="-68" x2="0" y2="-80" stroke-width="2"/>
    <path d="M-8,-76 L8,-76" stroke-width="2"/>
    <rect x="-35" y="-30" width="25" height="20" rx="2"/>
    <rect x="10" y="-30" width="25" height="20" rx="2"/>
    <rect x="-15" y="10" width="30" height="40" rx="2"/>
    <circle cx="0" cy="30" r="3" fill="#fff"/>
    <line x1="-50" y1="0" x2="50" y2="0" stroke-width="2"/>
  </g>
  <text x="400" y="480" text-anchor="middle" fill="#fff" font-family="Microsoft YaHei,PingFang SC,sans-serif" font-size="36" font-weight="bold">轻奢风</text>
  <text x="400" y="520" text-anchor="middle" fill="#D4AF37" font-family="Microsoft YaHei,PingFang SC,sans-serif" font-size="20">Luxury Style</text>
</svg>