<svg xmlns="http://www.w3.org/2000/svg" viewBox="0 0 800 600" width="800" height="600">
  <defs>
    <linearGradient id="bg" x1="0%" y1="0%" x2="100%" y2="100%">
      <stop offset="0%" style="stop-color:#8B2500"/>
      <stop offset="100%" style="stop-color:#5C3D2E"/>
    </linearGradient>
  </defs>
  <rect width="800" height="600" fill="url(#bg)"/>
  <g transform="translate(400,250)" fill="none" stroke="#fff" stroke-width="3" stroke-linecap="round" stroke-linejoin="round">
    <path d="M-80,60 L-80,-20 L-60,-20 L-60,-50 L60,-50 L60,-20 L80,-20 L80,60 Z"/>
    <path d="M-100,-20 L0,-70 L100,-20"/>
    <line x1="0" y1="-70" x2="0" y2="-90"/>
    <rect x="-20" y="-90" width="40" height="10" rx="2"/>
    <rect x="-30" y="10" width="25" height="35" rx="2"/>
    <rect x="5" y="10" width="25" height="35" rx="2"/>
    <path d="M-15,-10 L0,-25 L15,-10" stroke-width="2"/>
    <line x1="0" y1="-25" x2="0" y2="-10" stroke-width="2"/>
  </g>
  <text x="400" y="480" text-anchor="middle" fill="#fff" font-family="Microsoft YaHei,PingFang SC,sans-serif" font-size="36" font-weight="bold">新中式别墅</text>
  <text x="400" y="520" text-anchor="middle" fill="#D4AF37" font-family="Microsoft YaHei,PingFang SC,sans-serif" font-size="20">New Chinese Villa</text>
</svg>