<svg xmlns="http://www.w3.org/2000/svg" viewBox="0 0 800 600" width="800" height="600">
  <defs>
    <linearGradient id="bg" x1="0%" y1="0%" x2="100%" y2="100%">
      <stop offset="0%" style="stop-color:#1A365D"/>
      <stop offset="100%" style="stop-color:#2A4365"/>
    </linearGradient>
  </defs>
  <rect width="800" height="600" fill="url(#bg)"/>
  <g transform="translate(400,250)" fill="none" stroke="#fff" stroke-width="3" stroke-linecap="round" stroke-linejoin="round">
    <rect x="-70" y="-70" width="140" height="130" rx="4"/>
    <line x1="-70" y1="-30" x2="70" y2="-30"/>
    <line x1="-70" y1="10" x2="70" y2="10"/>
    <rect x="-55" y="-60" width="25" height="25" rx="2"/>
    <rect x="-15" y="-60" width="25" height="25" rx="2"/>
    <rect x="30" y="-60" width="25" height="25" rx="2"/>
    <rect x="-55" y="-20" width="25" height="25" rx="2"/>
    <rect x="-15" y="-20" width="25" height="25" rx="2"/>
    <rect x="30" y="-20" width="25" height="25" rx="2"/>
    <rect x="-20" y="20" width="40" height="35" rx="2"/>
    <circle cx="0" cy="35" r="3" fill="#fff"/>
  </g>
  <text x="400" y="480" text-anchor="middle" fill="#fff" font-family="Microsoft YaHei,PingFang SC,sans-serif" font-size="36" font-weight="bold">企业办公</text>
  <text x="400" y="520" text-anchor="middle" fill="#D4AF37" font-family="Microsoft YaHei,PingFang SC,sans-serif" font-size="20">Corporate Office</text>
</svg>