<svg xmlns="http://www.w3.org/2000/svg" viewBox="0 0 800 600" width="800" height="600">
  <defs>
    <linearGradient id="bg" x1="0%" y1="0%" x2="100%" y2="100%">
      <stop offset="0%" style="stop-color:#2C5282"/>
      <stop offset="100%" style="stop-color:#5C3D2E"/>
    </linearGradient>
  </defs>
  <rect width="800" height="600" fill="url(#bg)"/>
  <g transform="translate(400,250)" fill="none" stroke="#fff" stroke-width="3" stroke-linecap="round" stroke-linejoin="round">
    <path d="M-60,60 Q-60,-20 0,-30 Q60,-20 60,60"/>
    <line x1="-60" y1="60" x2="60" y2="60"/>
    <line x1="-40" y1="10" x2="-20" y2="10"/>
    <line x1="20" y1="10" x2="40" y2="10"/>
    <circle cx="-30" cy="10" r="5"/>
    <circle cx="30" cy="10" r="5"/>
    <path d="M-10,-30 L-10,-60" stroke-width="2"/>
    <path d="M10,-30 L10,-60" stroke-width="2"/>
    <path d="M-20,-55 L0,-70 L20,-55" stroke-width="2"/>
    <line x1="0" y1="-70" x2="0" y2="-80" stroke-width="2"/>
    <path d="M-5,-80 L5,-80" stroke-width="2"/>
    <rect x="-45" y="30" width="20" height="25" rx="2"/>
    <rect x="25" y="30" width="20" height="25" rx="2"/>
    <path d="M-35,30 Q-35,20 -25,20" stroke-width="2"/>
    <path d="M35,30 Q35,20 45,20" stroke-width="2"/>
  </g>
  <text x="400" y="480" text-anchor="middle" fill="#fff" font-family="Microsoft YaHei,PingFang SC,sans-serif" font-size="36" font-weight="bold">水电工艺</text>
  <text x="400" y="520" text-anchor="middle" fill="#D4AF37" font-family="Microsoft YaHei,PingFang SC,sans-serif" font-size="20">Hydropower Craft</text>
</svg>