<svg xmlns="http://www.w3.org/2000/svg" viewBox="0 0 800 600" width="800" height="600">
  <defs>
    <linearGradient id="bg" x1="0%" y1="0%" x2="100%" y2="100%">
      <stop offset="0%" style="stop-color:#EBF8FF"/>
      <stop offset="100%" style="stop-color:#BEE3F8"/>
    </linearGradient>
  </defs>
  <rect width="800" height="600" fill="url(#bg)"/>
  <g transform="translate(400,250)" fill="none" stroke="#2C5282" stroke-width="3" stroke-linecap="round" stroke-linejoin="round">
    <rect x="-60" y="-20" width="120" height="60" rx="4"/>
    <rect x="-50" y="-30" width="15" height="10" rx="2"/>
    <rect x="-25" y="-30" width="15" height="10" rx="2"/>
    <rect x="10" y="-30" width="15" height="10" rx="2"/>
    <rect x="35" y="-30" width="15" height="10" rx="2"/>
    <rect x="-50" y="40" width="10" height="20" rx="2"/>
    <rect x="40" y="40" width="10" height="20" rx="2"/>
    <line x1="-60" y1="10" x2="60" y2="10"/>
    <rect x="-40" y="15" width="20" height="20" rx="2"/>
    <rect x="20" y="15" width="20" height="20" rx="2"/>
  </g>
  <text x="400" y="480" text-anchor="middle" fill="#2C5282" font-family="Microsoft YaHei,PingFang SC,sans-serif" font-size="36" font-weight="bold">北欧风</text>
  <text x="400" y="520" text-anchor="middle" fill="#D4AF37" font-family="Microsoft YaHei,PingFang SC,sans-serif" font-size="20">Nordic Style</text>
</svg>