<svg xmlns="http://www.w3.org/2000/svg" viewBox="0 0 800 600" width="800" height="600">
  <defs>
    <linearGradient id="bg" x1="0%" y1="0%" x2="100%" y2="100%">
      <stop offset="0%" style="stop-color:#D4C5A9"/>
      <stop offset="100%" style="stop-color:#5C3D2E"/>
    </linearGradient>
  </defs>
  <rect width="800" height="600" fill="url(#bg)"/>
  <g transform="translate(400,250)" fill="none" stroke="#fff" stroke-width="3" stroke-linecap="round" stroke-linejoin="round">
    <path d="M-70,60 L-70,-10 L0,-60 L70,-10 L70,60 Z"/>
    <path d="M-90,60 L90,60"/>
    <rect x="-20" y="15" width="40" height="45" rx="2"/>
    <line x1="0" y1="15" x2="0" y2="60"/>
    <circle cx="0" cy="38" r="3" fill="#fff"/>
    <rect x="-55" y="5" width="25" height="30" rx="2"/>
    <rect x="30" y="5" width="25" height="30" rx="2"/>
    <line x1="-70" y1="0" x2="-55" y2="0"/>
    <line x1="70" y1="0" x2="55" y2="0"/>
    <path d="M-70,-10 Q-80,-10 -80,0 L-80,5" stroke-width="2"/>
    <path d="M70,-10 Q80,-10 80,0 L80,5" stroke-width="2"/>
  </g>
  <text x="400" y="480" text-anchor="middle" fill="#fff" font-family="Microsoft YaHei,PingFang SC,sans-serif" font-size="36" font-weight="bold">日式住宅</text>
  <text x="400" y="520" text-anchor="middle" fill="#D4AF37" font-family="Microsoft YaHei,PingFang SC,sans-serif" font-size="20">Japanese House</text>
</svg>