<svg xmlns="http://www.w3.org/2000/svg" viewBox="0 0 800 600" width="800" height="600">
  <defs>
    <linearGradient id="bg" x1="0%" y1="0%" x2="100%" y2="100%">
      <stop offset="0%" style="stop-color:#5C3D2E"/>
      <stop offset="100%" style="stop-color:#8B6914"/>
    </linearGradient>
  </defs>
  <rect width="800" height="600" fill="url(#bg)"/>
  <g transform="translate(400,250)" fill="none" stroke="#fff" stroke-width="3" stroke-linecap="round" stroke-linejoin="round">
    <rect x="-70" y="-30" width="140" height="70" rx="6"/>
    <path d="M-70,-30 Q-70,-50 -50,-50 L50,-50 Q70,-50 70,-30"/>
    <rect x="-55" y="-10" width="30" height="30" rx="4"/>
    <rect x="25" y="-10" width="30" height="30" rx="4"/>
    <rect x="-55" y="40" width="15" height="20" rx="2"/>
    <rect x="40" y="40" width="15" height="20" rx="2"/>
    <line x1="-40" y1="5" x2="-40" y2="5" stroke-width="4"/>
    <line x1="40" y1="5" x2="40" y2="5" stroke-width="4"/>
    <path d="M-15,-10 Q0,-25 15,-10" stroke-width="2"/>
  </g>
  <text x="400" y="480" text-anchor="middle" fill="#fff" font-family="Microsoft YaHei,PingFang SC,sans-serif" font-size="36" font-weight="bold">美式风格</text>
  <text x="400" y="520" text-anchor="middle" fill="#D4AF37" font-family="Microsoft YaHei,PingFang SC,sans-serif" font-size="20">American Style</text>
</svg>