<svg xmlns="http://www.w3.org/2000/svg" viewBox="0 0 800 600" width="800" height="600">
  <defs>
    <linearGradient id="bg" x1="0%" y1="0%" x2="100%" y2="100%">
      <stop offset="0%" style="stop-color:#8B0000"/>
      <stop offset="100%" style="stop-color:#D4AF37"/>
    </linearGradient>
  </defs>
  <rect width="800" height="600" fill="url(#bg)"/>
  <g transform="translate(400,250)" fill="none" stroke="#fff" stroke-width="3" stroke-linecap="round" stroke-linejoin="round">
    <path d="M-60,60 L-60,-20 L-40,-20 L-40,-50 L40,-50 L40,-20 L60,-20 L60,60 Z"/>
    <path d="M-80,-20 L0,-70 L80,-20"/>
    <line x1="0" y1="-70" x2="0" y2="-90"/>
    <rect x="-15" y="-90" width="30" height="8" rx="2"/>
    <rect x="-25" y="10" width="20" height="35" rx="2"/>
    <rect x="5" y="10" width="20" height="35" rx="2"/>
    <path d="M-12,-10 L0,-22 L12,-10" stroke-width="2"/>
    <line x1="0" y1="-22" x2="0" y2="-10" stroke-width="2"/>
    <circle cx="-30" cy="-35" r="6"/>
    <circle cx="30" cy="-35" r="6"/>
  </g>
  <text x="400" y="480" text-anchor="middle" fill="#fff" font-family="Microsoft YaHei,PingFang SC,sans-serif" font-size="36" font-weight="bold">新中式</text>
  <text x="400" y="520" text-anchor="middle" fill="#D4AF37" font-family="Microsoft YaHei,PingFang SC,sans-serif" font-size="20">New Chinese</text>
</svg>